<?xml version="1.0" standalone="no"?>
<!DOCTYPE svg PUBLIC "-//W3C//DTD SVG 20010904//EN"
 "http://www.w3.org/TR/2001/REC-SVG-20010904/DTD/svg10.dtd">
<svg version="1.0" xmlns="http://www.w3.org/2000/svg"
 width="1280.000000pt" height="720.000000pt" viewBox="0 0 1280.000000 720.000000"
 preserveAspectRatio="xMidYMid meet">
<g transform="translate(0.000000,720.000000) scale(0.100000,-0.100000)"
fill="#000000" stroke="none">
<path d="M10850 7174 c0 -31 23 -28 28 4 2 15 -2 22 -12 22 -11 0 -16 -9 -16
-26z"/>
<path d="M10905 7181 c-8 -25 3 -49 26 -56 19 -6 25 -26 12 -38 -3 -4 -13 -1
-22 7 -9 8 -28 17 -42 21 -23 6 -28 2 -43 -28 -9 -19 -16 -44 -16 -56 0 -19
-10 -26 -33 -22 -4 1 -17 -3 -27 -9 -17 -9 -23 -5 -42 24 l-22 34 -33 -25
c-18 -14 -33 -33 -33 -43 0 -10 -5 -20 -10 -22 -6 -2 -11 -21 -11 -43 1 -63 3
-79 14 -92 7 -10 4 -13 -11 -13 -14 0 -20 5 -16 14 4 11 0 13 -15 9 -30 -8
-35 -20 -11 -33 11 -6 20 -17 20 -25 0 -14 -32 -37 -47 -34 -8 2 -23 -3 -70
-22 -19 -7 -23 -5 -23 9 0 9 9 28 20 42 27 35 27 54 -1 39 -18 -9 -25 -7 -45
12 -13 13 -30 30 -39 37 -8 7 -15 22 -15 32 0 11 -7 20 -15 20 -8 0 -22 11
-31 25 -22 33 -29 32 -48 -10 -11 -23 -21 -32 -31 -28 -17 6 -30 47 -20 62 3
7 -2 11 -14 11 -12 0 -21 5 -21 12 0 9 -3 9 -12 0 -8 -8 -8 -15 2 -26 17 -21
5 -49 -18 -42 -12 4 -26 -1 -37 -14 -10 -11 -31 -20 -46 -20 -39 0 -45 -16
-16 -42 22 -21 47 -59 47 -72 0 -3 -7 -6 -15 -6 -20 0 -19 -39 1 -62 13 -14
14 -21 5 -32 -9 -11 -9 -19 1 -35 16 -26 5 -36 -44 -45 -33 -6 -38 -4 -38 13
0 11 -12 34 -26 51 -25 29 -27 30 -45 14 -18 -16 -20 -16 -37 -1 -10 10 -24
17 -30 17 -7 0 -12 7 -12 17 0 15 -1 15 -18 0 -13 -12 -31 -15 -67 -11 -86 7
-158 25 -208 49 -56 28 -76 24 -84 -16 -3 -16 -12 -34 -19 -40 -8 -6 -14 -15
-14 -19 0 -17 -54 -90 -67 -90 -7 0 -13 -6 -13 -14 0 -20 -18 -30 -33 -17 -7
5 -23 8 -35 5 -15 -5 -28 2 -46 22 l-25 29 -33 -38 -34 -38 -50 11 c-48 11
-80 7 -150 -20 -12 -5 -31 -6 -42 -3 -11 2 -29 0 -41 -6 -17 -10 -23 -7 -37
14 -21 32 -31 32 -46 0 -11 -26 -47 -41 -81 -36 -10 1 -25 -6 -32 -15 -11 -16
-17 -17 -40 -6 -15 7 -28 11 -29 10 0 -2 -7 -13 -13 -25 -7 -12 -10 -29 -7
-37 3 -9 -11 -31 -36 -56 -37 -37 -46 -41 -73 -36 -18 4 -42 7 -54 6 -12 0
-34 5 -48 10 -18 7 -31 6 -44 -2 -13 -8 -27 -8 -48 -1 -18 7 -36 7 -44 2 -8
-5 -20 -9 -26 -9 -23 0 -53 39 -53 68 0 43 -11 46 -41 12 -20 -21 -37 -30 -59
-30 l-32 0 21 -35 c26 -45 9 -56 -30 -19 -16 15 -41 29 -56 31 -55 8 -128 2
-143 -11 -8 -7 -23 -16 -32 -19 -18 -6 -15 -37 3 -37 5 0 9 -9 9 -21 0 -15 -5
-19 -15 -15 -19 7 -20 -17 -2 -33 8 -6 25 -8 43 -3 72 19 116 -16 75 -57 -12
-12 -21 -28 -21 -36 0 -8 -10 -19 -21 -26 -18 -9 -24 -8 -31 5 -11 20 -52 21
-68 1 -19 -23 -30 -18 -30 14 0 15 -9 40 -20 53 -10 14 -17 28 -13 31 3 4 -2
9 -11 13 -22 8 -43 -20 -51 -68 -8 -46 -22 -56 -40 -32 -13 18 -15 18 -44 -10
-36 -35 -38 -46 -11 -53 11 -3 20 -9 20 -13 0 -5 13 -11 29 -15 39 -8 77 -68
55 -85 -7 -7 -21 -10 -29 -6 -21 8 -19 -8 5 -29 14 -13 29 -16 55 -12 30 5 35
3 35 -13 0 -29 20 -34 42 -10 19 20 21 20 39 4 21 -19 25 -54 7 -72 -8 -8 -5
-14 17 -22 17 -6 32 -7 39 -1 14 12 105 6 120 -9 7 -7 7 -16 -2 -30 -10 -16
-9 -21 7 -30 11 -5 28 -10 37 -10 14 0 15 3 6 12 -17 17 -15 38 6 45 9 4 22
13 28 21 6 8 16 12 23 8 9 -6 9 -11 1 -21 -8 -10 -7 -22 5 -45 30 -57 -2 -151
-40 -120 -9 7 -14 22 -13 33 2 17 -6 23 -39 33 -40 12 -44 11 -54 -7 -7 -15
-7 -24 1 -34 13 -16 9 -19 -57 -36 -50 -12 -54 -12 -77 10 -23 22 -24 22 -29
2 -4 -15 2 -22 25 -30 27 -9 29 -14 23 -41 -4 -19 -3 -30 4 -30 6 0 11 8 11
19 0 15 8 18 56 18 53 0 55 -1 52 -26 -2 -19 -10 -27 -27 -29 -27 -4 -60 -39
-60 -62 0 -33 36 -60 96 -69 32 -5 67 -11 77 -13 13 -2 24 6 32 21 17 33 34
42 69 35 22 -4 38 0 55 15 24 19 24 20 6 34 -12 9 -17 20 -13 31 5 13 17 16
54 14 43 -3 50 -7 77 -47 34 -50 28 -72 -22 -82 -16 -3 -42 -16 -57 -28 -15
-11 -32 -21 -37 -21 -6 0 -21 -9 -35 -20 -14 -11 -35 -20 -47 -20 -20 0 -20 0
2 -16 12 -8 22 -21 22 -29 0 -22 -50 -70 -72 -70 -14 0 -28 -13 -40 -37 -23
-43 -38 -47 -79 -17 -17 12 -41 24 -54 27 -35 10 -31 26 7 32 32 5 32 5 13 20
-16 11 -21 26 -21 58 1 46 -16 66 -46 56 -15 -4 -16 1 -11 44 3 32 1 52 -6 56
-6 4 -11 3 -11 -3 0 -23 -38 -31 -83 -19 -35 9 -51 9 -75 -1 -28 -12 -30 -16
-20 -35 6 -11 16 -24 21 -28 7 -4 7 -11 -1 -21 -16 -19 4 -44 41 -53 27 -6 28
-5 16 14 -18 28 -3 40 20 16 14 -15 16 -26 10 -48 -5 -16 -6 -39 -3 -51 3 -13
-2 -27 -15 -39 -26 -24 -27 -36 -2 -36 14 0 21 8 23 28 6 50 68 39 89 -16 5
-12 15 -22 21 -21 29 3 38 -2 38 -25 0 -14 5 -28 10 -31 19 -12 10 -25 -17
-25 -16 0 -41 -11 -58 -25 -25 -21 -26 -25 -10 -23 14 2 21 -4 23 -20 2 -12
16 -29 33 -37 33 -18 37 -30 12 -43 -15 -9 -15 -11 -1 -26 9 -9 28 -16 41 -16
36 0 57 -10 57 -27 0 -12 7 -14 38 -7 47 10 77 10 124 0 l38 -8 -6 30 c-4 17
-1 32 5 36 16 11 13 36 -4 36 -9 0 -18 -7 -21 -15 -8 -20 -21 -19 -41 4 -13
15 -20 17 -34 8 -24 -15 -29 -8 -23 34 6 35 36 59 75 59 15 0 40 25 112 114
18 22 25 40 20 52 -5 13 -3 16 10 11 11 -4 22 1 32 17 28 43 97 83 166 96 38
7 75 10 85 5 37 -16 89 -13 121 7 17 10 54 21 82 25 48 5 51 4 51 -17 0 -19 4
-22 27 -17 20 4 36 -3 62 -24 30 -24 42 -28 73 -22 45 7 79 -12 102 -57 14
-30 14 -31 -9 -40 -21 -8 -23 -14 -19 -47 9 -62 11 -65 32 -52 11 7 17 20 15
29 -3 10 6 23 22 34 24 16 32 16 88 3 54 -12 62 -17 60 -35 -2 -18 2 -22 27
-22 17 0 47 7 67 15 19 8 37 15 38 15 1 0 15 -24 29 -52 24 -49 50 -157 40
-168 -3 -2 -23 -5 -44 -6 -36 -2 -40 0 -40 22 0 20 -5 24 -30 24 -20 0 -30 -5
-30 -15 0 -17 -16 -20 -26 -4 -3 6 -15 8 -27 5 -11 -3 -36 2 -55 10 -23 9 -48
12 -71 8 -19 -4 -47 -8 -61 -9 -14 -1 -34 -3 -45 -3 -16 -2 -14 -6 15 -31 25
-20 39 -26 47 -19 24 19 34 3 13 -20 -16 -17 -25 -20 -34 -13 -16 14 -26 4
-26 -26 0 -30 -26 -30 -55 1 -20 22 -28 23 -88 19 -52 -5 -72 -2 -93 12 -31
20 -74 13 -74 -13 0 -10 -9 -28 -20 -40 -11 -12 -20 -27 -20 -33 0 -7 -8 -21
-17 -31 -14 -16 -15 -23 -5 -38 7 -11 12 -29 12 -40 0 -15 13 -27 46 -41 72
-32 76 -73 4 -49 -39 13 -42 12 -70 -15 -27 -26 -60 -29 -60 -5 0 13 -67 13
-75 0 -10 -17 -25 -11 -25 10 0 13 -7 20 -20 20 -12 0 -22 9 -26 24 -3 14 -15
33 -27 43 -20 17 -20 17 -13 -1 4 -12 0 -26 -10 -37 -15 -16 -15 -19 -2 -19
26 0 49 -35 46 -71 -3 -32 -1 -34 32 -37 43 -4 62 -19 55 -43 -4 -10 1 -21 11
-27 22 -13 14 -46 -14 -50 -12 -2 -22 2 -22 8 0 7 -8 10 -19 7 -10 -2 -25 -1
-34 4 -8 5 -35 5 -59 1 -24 -5 -50 -6 -58 -2 -8 4 -25 12 -37 18 -16 8 -24 9
-29 1 -8 -13 11 -27 48 -35 53 -12 62 -54 12 -54 -14 0 -27 -7 -30 -15 -11
-28 -34 -17 -34 16 0 36 -16 69 -33 69 -7 0 -25 -12 -41 -26 -22 -21 -26 -32
-21 -53 4 -14 9 -59 12 -98 l5 -73 34 0 c40 0 43 14 12 47 -18 19 -19 25 -9
36 11 9 14 9 18 0 3 -8 22 -13 44 -13 l40 0 -7 -37 c-4 -21 -8 -40 -10 -42 -2
-2 3 -12 12 -22 22 -24 3 -58 -37 -66 -29 -5 -29 -6 -10 -20 14 -9 26 -11 38
-5 89 44 92 45 108 32 9 -7 14 -19 11 -27 -7 -17 20 -17 34 0 6 6 21 32 33 56
27 55 54 74 68 49 13 -24 31 -23 47 2 9 15 10 26 2 40 -16 31 -1 49 56 66 30
8 68 29 86 46 18 16 41 37 50 45 12 11 26 13 45 8 71 -17 100 -16 176 10 43
14 82 23 87 20 5 -3 2 -22 -6 -42 -27 -62 -33 -132 -18 -177 8 -22 14 -60 13
-85 0 -25 3 -61 7 -80 5 -25 -1 -58 -21 -122 -16 -49 -25 -92 -21 -96 10 -11
22 13 48 92 28 90 34 230 12 297 -13 39 -13 55 -4 85 26 81 51 112 114 142 34
16 72 41 85 55 14 14 32 26 42 26 23 0 43 26 35 46 -8 22 12 46 34 39 9 -3 23
1 30 10 15 19 60 20 84 2 26 -19 13 -69 -29 -116 -22 -24 -35 -51 -40 -81 -6
-39 -27 -100 -56 -165 -5 -11 -19 -32 -31 -48 -18 -22 -22 -38 -20 -87 3 -67
-14 -110 -53 -136 -34 -22 -80 -119 -69 -144 12 -27 28 -13 45 40 10 31 24 51
49 68 21 14 40 38 48 59 33 98 90 95 102 -5 3 -25 11 -47 19 -50 10 -3 12 5 6
39 -11 68 -34 117 -68 145 l-31 26 27 24 c15 13 27 29 27 37 0 8 11 34 24 58
13 24 26 66 30 94 9 71 39 99 108 100 45 0 53 -3 52 -17 -1 -14 6 -18 35 -18
41 0 55 -7 64 -32 3 -10 14 -18 24 -18 19 -1 53 -42 152 -183 58 -84 61 -90
61 -148 0 -65 12 -99 35 -99 31 0 45 -61 23 -103 -6 -12 -14 -29 -18 -37 -4
-8 -20 -16 -36 -18 -28 -3 -54 -36 -54 -69 0 -27 -29 -71 -50 -76 -17 -4 -20
-11 -15 -26 4 -14 -1 -27 -19 -42 -31 -27 -33 -39 -5 -39 36 0 56 18 93 83 19
35 42 70 51 77 18 15 45 6 45 -15 0 -8 5 -15 10 -15 6 0 10 12 10 28 0 15 14
65 31 112 17 47 33 93 36 103 7 22 42 31 93 24 26 -3 43 0 53 10 16 17 129 22
227 10 64 -8 182 -49 188 -66 2 -6 -4 -23 -13 -37 -14 -22 -22 -25 -51 -19
-37 7 -40 4 -22 -24 9 -15 7 -28 -10 -65 -12 -25 -22 -49 -22 -54 0 -13 -55
-62 -71 -62 -7 0 -23 -7 -33 -15 -19 -14 -19 -15 -1 -35 14 -15 16 -29 11 -60
-6 -41 7 -57 19 -21 3 10 15 27 27 37 20 19 21 19 42 -9 11 -16 28 -54 37 -85
15 -56 16 -57 86 -92 39 -20 78 -41 87 -49 14 -12 16 -11 16 4 0 10 -8 27 -17
37 -16 18 -16 20 12 43 17 13 36 24 43 25 16 0 15 20 -2 43 -8 10 -29 18 -52
20 -37 2 -39 1 -40 -28 -1 -41 -10 -55 -39 -55 -41 0 -67 85 -39 128 15 23 15
27 -6 63 -19 34 -20 44 -10 74 7 20 18 35 27 35 11 0 14 6 9 25 -9 34 43 90
74 80 17 -5 20 -2 20 25 0 24 6 33 27 41 22 8 32 6 54 -11 16 -11 33 -20 39
-20 30 0 113 -55 151 -100 37 -44 47 -50 81 -50 50 0 67 -9 153 -83 108 -93
108 -93 100 -155 -4 -36 -3 -58 6 -68 6 -8 48 -33 91 -56 44 -23 91 -56 106
-74 36 -46 69 -51 129 -21 26 14 64 28 83 32 44 9 58 20 75 62 16 39 26 40 71
13 23 -15 37 -35 49 -71 10 -29 27 -56 42 -67 47 -32 125 -106 138 -132 42
-81 66 -349 38 -417 -7 -18 -13 -52 -13 -76 0 -35 -6 -49 -30 -72 -34 -33 -40
-77 -14 -106 15 -16 15 -27 4 -98 -7 -44 -10 -92 -6 -105 7 -27 -41 -112 -84
-151 -12 -11 -26 -30 -31 -42 -9 -24 -51 -56 -78 -58 -9 0 -22 -4 -29 -9 -6
-4 -16 -5 -22 -1 -13 8 -1 35 16 35 16 0 34 39 34 76 0 13 4 24 9 24 5 0 13
24 16 54 6 47 4 59 -15 86 -41 58 -121 76 -167 38 -23 -18 -63 -85 -63 -103 0
-9 -7 -18 -15 -21 -22 -9 -18 -23 5 -17 13 4 20 0 20 -9 0 -20 70 -94 78 -82
10 15 102 16 102 1 -1 -17 -21 -42 -47 -55 -19 -10 -24 -8 -41 13 l-20 25 -16
-25 c-21 -32 -34 -32 -46 0 -8 20 -16 25 -45 25 -41 0 -52 17 -35 52 11 20 7
18 -21 -8 -19 -17 -39 -30 -46 -27 -7 2 -15 -7 -19 -21 -17 -70 -61 -45 -50
29 6 36 4 45 -8 45 -22 0 -28 -15 -15 -43 16 -36 -2 -65 -40 -63 -16 1 -33 5
-37 9 -4 4 -15 7 -24 7 -10 0 -25 20 -39 55 -25 60 -46 84 -35 40 5 -19 1 -35
-13 -53 -11 -15 -25 -48 -32 -74 -19 -67 -37 -80 -55 -37 l-14 34 -19 -33
c-10 -17 -21 -32 -25 -32 -18 0 -18 25 1 65 16 35 27 45 45 45 26 0 38 25 29
61 -5 19 -11 21 -48 16 -23 -4 -45 -4 -48 -1 -3 3 1 31 8 62 8 31 12 58 11 59
-1 2 -18 -27 -37 -62 -38 -73 -59 -83 -59 -30 0 19 -4 35 -10 35 -5 0 -10 -14
-10 -30 0 -38 -26 -103 -38 -96 -5 3 -12 28 -15 56 -3 27 -11 58 -17 68 -9 13
-10 -3 -6 -65 4 -64 2 -85 -9 -97 -8 -8 -15 -21 -15 -29 0 -8 -7 -20 -15 -27
-22 -18 -37 0 -33 36 2 21 8 29 21 27 15 -1 17 4 12 24 -6 24 -27 53 -39 53
-3 0 -6 -11 -6 -24 0 -27 -18 -45 -29 -29 -10 16 -50 8 -65 -13 -17 -22 -33
-12 -38 25 -4 32 -24 38 -33 11 -9 -28 -29 -20 -33 13 l-3 26 -34 -34 c-19
-18 -37 -45 -41 -59 -3 -14 -12 -26 -20 -26 -14 0 -16 5 -18 49 -1 13 -7 26
-15 29 -11 4 -12 -3 -7 -32 9 -46 0 -76 -22 -76 -24 1 -55 27 -47 40 4 6 1 17
-5 25 -9 11 -9 23 -2 44 6 16 8 32 5 35 -12 12 -43 -16 -43 -38 0 -28 -15 -42
-54 -52 -27 -6 -28 -6 -21 24 6 28 4 31 -22 34 -30 3 -30 4 -20 78 l7 45 -15
-50 c-7 -27 -16 -62 -20 -77 -9 -44 -33 -34 -47 20 l-12 47 -8 -33 c-5 -17
-15 -32 -23 -32 -17 0 -45 38 -45 61 0 9 -6 22 -14 28 -11 9 -15 7 -19 -10 -5
-18 -11 -21 -38 -15 -17 3 -42 6 -55 6 -17 0 -25 7 -30 25 -6 26 -52 65 -75
65 -8 0 -37 -10 -66 -22 -50 -21 -53 -21 -72 -4 -22 20 -41 14 -41 -12 -1 -9
-12 -30 -26 -47 l-24 -30 -19 25 c-22 28 -34 71 -32 115 l1 30 -16 -30 c-26
-47 -42 -61 -69 -60 -14 0 -25 3 -25 8 0 4 0 16 0 28 0 12 14 34 30 49 50 46
33 110 -29 110 -36 0 -51 -17 -51 -56 0 -42 9 -64 26 -64 8 0 14 -4 14 -9 0
-22 -13 -41 -28 -41 -8 0 -24 -7 -34 -17 -17 -15 -19 -15 -37 1 -18 16 -20 15
-52 -22 -30 -36 -35 -39 -68 -31 -41 9 -51 5 -51 -22 0 -10 -7 -19 -15 -19
-10 0 -15 10 -15 29 0 42 -34 36 -38 -7 -4 -42 -20 -53 -65 -42 -33 7 -37 6
-37 -12 0 -11 -7 -34 -14 -51 -8 -18 -16 -45 -18 -62 -2 -19 -9 -30 -18 -30
-19 0 -38 80 -23 104 12 19 6 44 -8 35 -6 -3 -19 2 -29 11 -28 25 -55 16 -55
-20 0 -24 5 -31 23 -33 13 -2 26 -10 28 -17 7 -17 -26 -55 -47 -55 -22 0 -43
26 -36 44 3 8 0 17 -8 19 -19 8 -26 -3 -14 -25 8 -15 5 -29 -15 -63 -39 -66
-91 -75 -79 -13 9 44 -10 28 -27 -23 -8 -22 -20 -43 -27 -46 -7 -3 -13 -13
-13 -22 -1 -9 -10 -27 -21 -40 -15 -19 -22 -22 -28 -12 -9 14 6 100 21 119 8
8 6 12 -5 12 -8 0 -17 -13 -20 -30 -6 -29 -29 -40 -42 -20 -11 17 -44 11 -56
-11 -9 -17 -8 -23 2 -30 7 -4 10 -12 5 -16 -5 -4 -11 -2 -13 4 -3 8 -14 11
-29 7 -35 -9 -56 12 -52 54 3 39 -16 56 -27 23 -3 -11 -15 -23 -26 -26 -27 -9
-24 -24 4 -18 15 4 19 2 12 -5 -5 -6 -22 -13 -36 -17 -27 -7 -44 6 -51 40 -4
16 -7 13 -21 -17 -16 -38 -40 -50 -51 -25 -3 8 -9 6 -20 -7 -21 -26 -29 -16
-16 19 6 17 15 25 24 22 9 -4 16 3 21 20 9 35 0 39 -20 9 -10 -14 -23 -26 -31
-26 -7 0 -24 -11 -38 -25 -36 -36 -50 -32 -43 13 7 41 0 82 -15 82 -5 0 -7 -4
-4 -8 5 -8 -13 -52 -48 -122 -7 -15 -19 -24 -29 -22 -10 2 -21 -7 -27 -20 -10
-22 -10 -22 -5 4 3 15 1 30 -5 33 -15 9 -12 71 4 84 7 6 20 9 28 6 7 -3 26 7
41 23 27 28 27 28 12 74 -23 67 -78 87 -129 47 -21 -16 -26 -29 -26 -62 0 -23
7 -55 15 -71 8 -15 15 -39 15 -52 0 -28 -20 -74 -33 -74 -14 0 -46 43 -47 64
0 13 -5 17 -20 13 -13 -3 -24 1 -29 12 -10 18 0 113 18 186 6 22 11 83 11 136
0 57 6 117 16 149 18 59 15 149 -7 218 l-14 44 35 28 34 28 -3 119 c-1 65 -6
136 -10 158 -4 22 -5 71 -1 109 4 48 1 79 -9 105 -7 20 -14 58 -15 85 -1 39
-6 52 -25 65 -13 9 -41 32 -61 51 -21 19 -50 45 -64 57 -23 19 -26 29 -26 80
0 70 -14 92 -76 129 -42 25 -47 26 -90 14 -67 -19 -110 -64 -119 -123 l-7 -48
-22 20 c-12 12 -28 21 -34 21 -7 0 -17 8 -24 19 -11 18 -12 18 -44 1 -18 -10
-34 -16 -37 -13 -9 8 -81 -76 -94 -110 -8 -23 -10 -81 -6 -199 6 -156 5 -168
-15 -201 -20 -35 -20 -35 0 -40 16 -5 19 -11 13 -36 -5 -24 -2 -32 14 -41 16
-8 21 -21 21 -53 0 -61 10 -87 31 -87 10 0 22 -7 27 -16 7 -13 13 -14 30 -5
41 22 60 14 87 -39 29 -57 31 -77 10 -116 -8 -16 -15 -36 -15 -44 0 -8 -9 -51
-20 -95 -28 -113 -26 -152 10 -208 19 -31 34 -72 41 -117 11 -63 10 -72 -6
-90 -10 -11 -25 -22 -34 -25 -27 -8 -53 -62 -46 -94 5 -26 1 -33 -40 -64 -25
-20 -55 -47 -65 -60 -21 -26 -77 -54 -87 -43 -4 4 -2 16 5 27 13 20 6 73 -8
64 -4 -3 -11 -21 -14 -40 -8 -40 -33 -57 -48 -32 -5 9 -15 14 -24 10 -19 -7
-33 12 -35 47 l-1 25 -11 -27 c-7 -14 -21 -36 -31 -47 l-20 -22 -23 28 c-19
24 -24 26 -33 13 -5 -8 -10 -22 -10 -31 0 -23 -29 -33 -37 -13 -3 8 -1 20 6
27 15 15 14 27 -4 27 -8 0 -15 -8 -15 -19 0 -31 -29 -91 -44 -91 -20 0 -26 23
-26 98 l0 67 -20 -33 c-11 -18 -20 -39 -20 -47 0 -7 -6 -20 -13 -27 -7 -7 -16
-21 -20 -31 -16 -41 -59 -28 -56 18 3 53 0 58 -31 52 -48 -10 -61 0 -54 42 l6
36 -21 -33 c-12 -18 -21 -48 -21 -68 0 -49 -21 -40 -38 17 -22 73 -26 76 -30
26 -4 -57 -18 -60 -61 -12 -26 30 -31 33 -31 15 0 -11 -8 -27 -19 -36 -10 -9
-16 -24 -14 -34 8 -30 -23 -89 -52 -96 -33 -8 -43 1 -27 27 15 23 8 41 -13 33
-8 -4 -18 1 -21 10 -3 9 -14 16 -23 16 -10 0 -23 11 -29 25 -14 31 -48 33 -57
4 -5 -15 -10 -18 -18 -10 -6 6 -18 11 -27 11 -21 0 -40 41 -40 87 0 34 -1 35
-18 20 -13 -12 -19 -32 -20 -68 -1 -48 -14 -79 -33 -79 -5 0 -9 14 -9 31 0 30
-1 31 -22 17 -56 -36 -89 -26 -85 27 1 15 -4 30 -10 32 -8 3 -13 -5 -13 -20 0
-31 -23 -51 -50 -42 -17 5 -20 2 -20 -20 0 -33 -29 -31 -45 2 -11 22 -11 22
-29 -8 -10 -17 -26 -29 -38 -29 -21 0 -21 7 -2 68 6 22 5 23 -13 11 -31 -19
-93 12 -93 47 0 14 -4 23 -9 20 -4 -3 -8 -23 -8 -44 0 -76 -47 -113 -49 -38
-1 20 -7 54 -14 76 -11 35 -11 41 9 69 54 76 48 136 -16 166 -34 16 -37 16
-72 -2 -50 -26 -68 -61 -56 -110 8 -29 18 -42 45 -55 30 -16 35 -23 36 -55 1
-51 -5 -73 -20 -73 -8 0 -19 -7 -26 -15 -19 -23 -40 -18 -40 10 0 18 -5 25
-19 25 -11 0 -26 7 -35 15 -18 19 -36 19 -36 1 0 -20 -39 -66 -56 -66 -8 0
-23 9 -33 19 -17 17 -21 18 -31 5 -30 -35 -30 16 -1 91 12 29 12 29 -8 10 -12
-10 -21 -24 -21 -31 0 -22 -23 -64 -34 -64 -6 0 -22 13 -36 30 -17 21 -27 26
-32 17 -6 -9 -11 -7 -19 7 -6 10 -19 26 -29 36 -10 10 -21 32 -25 49 -11 49
-59 91 -105 91 -56 0 -91 -33 -97 -91 -5 -39 -2 -50 21 -74 34 -37 31 -69 -7
-73 -22 -3 -31 3 -45 28 -32 59 -40 67 -52 50 -5 -8 -11 -19 -13 -25 -2 -6
-11 -4 -21 4 -14 12 -19 11 -35 -3 -15 -13 -20 -14 -23 -4 -4 10 -8 11 -20 1
-19 -16 -28 -7 -28 29 0 28 -17 37 -35 19 -17 -16 -85 -25 -85 -11 0 9 -3 10
-14 1 -7 -6 -20 -9 -29 -5 -8 3 -18 1 -22 -5 -3 -6 -17 -8 -31 -5 -21 5 -24 3
-24 -19 0 -19 -6 -26 -27 -30 -37 -7 -44 -1 -37 31 5 23 3 22 -13 -8 -28 -54
-46 -50 -90 21 -35 58 -38 61 -41 36 -5 -45 -90 -98 -112 -71 -7 8 -21 14 -32
14 -16 0 -18 6 -15 40 6 57 -9 49 -23 -12 -13 -54 -26 -78 -41 -78 -5 0 -9 8
-9 18 0 44 -79 48 -107 6 -18 -27 -38 -31 -47 -9 -9 23 -46 -4 -46 -33 0 -21
-3 -23 -28 -18 -15 4 -31 13 -37 20 -5 7 -16 11 -22 9 -7 -3 -13 0 -13 6 0 6
-8 11 -18 11 -20 0 -52 29 -52 47 0 6 -9 13 -21 16 -15 4 -22 -1 -29 -19 -11
-29 -30 -31 -37 -4 -3 11 -10 20 -15 20 -6 0 -7 -11 -4 -24 6 -25 -20 -116
-34 -116 -19 0 -33 35 -31 75 1 31 -2 44 -14 49 -16 6 -35 -27 -35 -60 0 -8
-9 -14 -20 -14 -11 0 -20 -4 -20 -8 0 -15 -48 -33 -56 -20 -4 7 -12 1 -21 -16
-17 -33 -21 -32 -57 4 l-28 29 -34 -22 c-19 -12 -34 -30 -34 -39 0 -10 -4 -18
-10 -18 -5 0 -10 -13 -10 -30 0 -22 -4 -28 -15 -24 -8 4 -15 17 -15 30 0 15 6
24 15 24 18 0 18 2 3 35 -13 30 -28 33 -28 6 0 -25 -34 -66 -48 -57 -6 4 -9
13 -6 21 6 15 -24 85 -36 85 -12 0 -20 -28 -14 -45 8 -21 -4 -65 -18 -65 -6 0
-17 8 -24 18 -12 15 -13 12 -14 -25 0 -30 -4 -43 -14 -43 -18 0 -33 20 -38 50
-3 24 -5 23 -30 -17 -23 -35 -34 -43 -78 -52 -55 -12 -70 -9 -70 14 0 29 -27
2 -48 -47 -17 -40 -25 -49 -34 -40 -9 9 -9 20 0 49 12 40 7 59 -9 30 -24 -41
-80 2 -58 45 8 14 -1 51 -17 76 -1 2 -12 -1 -23 -8 -27 -14 -27 -46 0 -53 16
-4 20 -10 14 -24 -4 -10 -9 -40 -11 -68 -6 -64 -10 -75 -29 -75 -17 0 -20 35
-6 73 8 21 7 23 -13 20 -20 -4 -24 0 -29 32 -3 20 -3 51 0 67 4 22 2 33 -10
40 -10 5 -17 17 -17 26 -1 22 -57 88 -67 78 -4 -4 -2 -11 5 -15 27 -17 72
-125 72 -173 0 -53 -14 -62 -45 -28 -24 27 -35 25 -35 -4 0 -35 -10 -56 -26
-56 -8 0 -14 10 -15 23 -1 20 -2 20 -12 -6 -15 -39 -51 -34 -55 8 -4 34 15
105 27 105 10 0 7 49 -10 160 -13 83 -41 132 -118 213 -39 41 -44 50 -34 66 9
15 9 21 0 29 -19 15 -79 44 -107 52 -21 6 -25 12 -25 45 0 33 -4 40 -25 46
-40 11 -216 10 -247 -2 l-28 -11 39 -20 c45 -23 37 -40 -20 -42 l-38 -1 -34
100 c-33 100 -65 146 -86 125 -33 -33 -82 5 -93 73 -6 41 6 52 55 49 37 -3 37
-3 11 100 -11 45 -92 146 -122 153 -12 3 -65 5 -117 3 -76 -2 -95 -6 -95 -18
0 -12 15 -15 90 -12 103 3 135 -2 135 -23 0 -15 -22 -20 -135 -31 -74 -6 -97
-17 -88 -40 7 -18 28 -18 142 2 89 15 94 15 111 -3 10 -10 21 -32 25 -50 5
-27 2 -34 -24 -54 -37 -27 -37 -36 -10 -114 23 -67 19 -103 -14 -109 -12 -3
-98 -7 -192 -10 -99 -3 -202 -12 -248 -21 -43 -9 -85 -14 -93 -11 -23 9 -17
39 22 113 20 37 43 90 51 118 10 32 29 64 55 90 23 22 48 51 56 65 25 39 104
141 132 168 14 13 48 38 77 54 47 26 52 33 63 80 19 76 93 143 237 213 62 30
119 55 125 55 7 0 22 7 32 15 11 8 41 15 67 15 29 0 51 6 59 15 7 8 20 15 29
15 9 0 25 7 35 15 11 9 41 15 70 15 35 0 47 3 39 11 -5 5 -29 10 -52 11 -35 0
-42 4 -47 25 -5 20 2 32 35 65 26 24 56 69 75 112 33 72 73 116 106 116 10 0
33 -6 52 -14 20 -9 40 -11 47 -6 19 11 6 40 -18 40 -25 0 -38 20 -20 31 8 5
34 9 59 9 25 0 56 7 70 15 14 8 52 14 85 15 70 0 108 17 148 65 30 36 142 114
195 135 24 9 63 11 137 7 87 -5 112 -10 147 -31 53 -31 79 -23 60 18 -17 38
-74 59 -172 62 -47 1 -96 4 -110 4 -14 1 -36 1 -50 0 -39 -4 -162 -66 -207
-105 -28 -23 -58 -38 -90 -44 -52 -10 -73 -2 -73 30 0 41 151 119 231 119 26
0 42 5 45 15 7 18 40 20 50 3 5 -8 10 -5 15 8 4 13 24 24 58 33 48 12 53 12
66 -5 12 -17 15 -17 32 -3 21 19 100 32 109 18 3 -5 16 -9 30 -9 13 0 43 -12
65 -26 23 -14 42 -24 43 -22 1 2 8 11 16 21 12 17 11 18 -13 12 -20 -5 -28 -3
-33 10 -11 27 19 47 75 50 28 2 73 11 101 21 41 15 55 16 70 6 17 -10 20 -10
20 3 0 19 46 49 65 41 18 -7 20 -37 3 -54 -9 -9 -9 -15 0 -24 7 -7 8 -17 1
-29 -8 -15 -6 -17 8 -12 10 4 21 11 24 16 14 20 29 -6 29 -47 0 -32 6 -48 23
-64 30 -28 38 -28 69 6 42 45 41 58 -5 97 -38 33 -41 38 -24 49 9 7 17 20 17
29 0 18 61 39 88 30 31 -9 67 -25 119 -51 43 -21 67 -26 140 -27 97 -1 142
-17 158 -53 5 -12 16 -22 23 -22 8 0 33 -17 57 -38 24 -21 63 -44 87 -51 24
-7 57 -23 73 -35 46 -35 78 -39 109 -15 37 29 33 37 -16 32 -57 -5 -171 50
-176 85 -3 17 2 25 17 29 21 5 26 19 22 61 -1 13 5 35 14 48 12 19 13 29 5 45
-14 26 -6 49 18 49 10 0 23 5 29 11 19 19 60 1 118 -51 41 -37 63 -50 86 -50
17 0 28 4 24 10 -3 5 -14 10 -24 10 -21 0 -37 17 -43 45 -3 14 -11 19 -26 18
-26 -3 -27 0 -5 33 l16 25 -104 -7 c-79 -5 -110 -12 -130 -27 -25 -18 -28 -18
-53 -2 -16 11 -26 26 -26 41 0 30 -60 58 -104 50 -16 -4 -35 -1 -42 5 -9 8
-15 5 -23 -8 -15 -30 15 -83 48 -83 14 0 37 -9 51 -20 14 -11 40 -20 58 -20
54 0 74 -16 71 -55 -2 -22 3 -41 15 -54 38 -42 -11 -82 -79 -63 -22 7 -29 14
-28 30 1 11 -4 26 -12 32 -8 7 -15 18 -15 24 0 7 -16 12 -37 12 -123 2 -253
14 -272 26 -28 17 -27 28 2 28 13 0 34 11 47 25 13 14 29 25 37 25 7 0 20 11
29 25 9 14 23 25 31 25 10 0 12 6 8 21 -4 13 -1 27 10 39 12 13 14 23 7 37
-11 21 -4 80 10 89 5 4 23 -3 39 -15 17 -13 40 -21 57 -19 24 3 27 -1 30 -29
3 -33 17 -44 25 -20 3 9 9 8 23 -4 10 -9 25 -14 33 -11 8 3 26 -10 42 -29 23
-28 29 -31 43 -20 8 7 14 23 13 34 -1 12 3 22 10 22 7 0 18 6 25 13 6 6 18 12
26 12 9 0 11 7 7 19 -3 10 0 30 6 45 9 20 9 32 0 52 -10 22 -16 25 -42 19 -42
-9 -60 15 -47 64 29 112 37 133 52 128 6 -2 12 -16 14 -30 4 -34 17 -34 45 -2
25 29 115 57 156 49 15 -3 34 1 45 9 21 16 21 15 -56 82 -11 9 -17 23 -14 32
3 8 -1 24 -9 36 -8 12 -15 31 -15 43 0 19 5 22 47 20 39 -1 54 3 76 24 25 22
39 25 105 26 87 1 207 -27 216 -51 3 -8 15 -15 26 -15 19 0 20 4 14 50 -6 43
-4 51 12 57 29 10 34 24 18 48 -10 16 -22 21 -38 18 -13 -3 -27 0 -30 6 -4 6
-15 11 -25 11 -10 0 -23 12 -29 26 -12 25 -32 25 -32 0 0 -19 -53 -42 -59 -25
-9 28 -76 80 -96 74 -11 -2 -28 -5 -37 -5 -11 0 -18 -8 -18 -19 0 -11 -5 -23
-11 -27 -14 -9 -30 16 -23 37 3 11 -3 18 -15 22 -13 3 -21 -1 -24 -13 -7 -25
-66 -21 -95 8 -24 24 -37 28 -47 12 -3 -5 -24 -10 -46 -10 -27 0 -39 -4 -39
-14 0 -9 -15 -16 -43 -19 -70 -7 -169 64 -110 79 11 3 19 16 20 33 2 26 0 27
-43 25 -40 -3 -44 -1 -44 21 0 16 -7 26 -22 31 -13 3 -31 14 -42 23 -10 9 -30
16 -45 16 -20 0 -27 5 -29 25 -2 14 -10 40 -18 58 -8 18 -13 36 -10 41 3 5 -1
22 -9 37 l-15 29 0 -37 c0 -34 -3 -38 -37 -47 -25 -7 -41 -7 -49 0 -17 14 -34
3 -34 -21 0 -10 -13 -29 -29 -43 -16 -13 -39 -45 -51 -71 -23 -52 -42 -65 -66
-45 -14 11 -18 11 -29 -4 -16 -22 -35 -22 -35 1 0 23 -35 56 -49 47 -6 -3 -11
-19 -11 -34 0 -17 -10 -37 -26 -52 -23 -21 -27 -22 -37 -8 -8 13 -15 14 -41 5
-17 -6 -34 -14 -37 -19 -7 -9 -67 2 -75 14 -3 5 -14 9 -24 9 -11 0 -28 10 -39
21 -16 17 -27 21 -56 16 -31 -5 -37 -3 -45 18 -7 17 -14 22 -30 18 -17 -4 -24
2 -38 36 -9 22 -25 44 -34 47 -26 8 -22 34 5 34 12 0 33 12 46 25 23 25 23 26
6 45 -18 20 -18 20 -61 -5 -37 -22 -43 -23 -55 -9 -8 9 -21 13 -35 10 -13 -4
-26 -1 -30 5 -4 6 -20 8 -39 5 -28 -6 -35 -3 -40 14 -7 22 -34 27 -52 9 -14
-14 -100 -20 -131 -8 -20 8 -30 5 -48 -12 -14 -13 -30 -19 -39 -15 -25 9 -65
-22 -65 -53 0 -32 -14 -56 -28 -47 -6 3 -14 1 -17 -5 -4 -6 -18 -8 -33 -4 -14
3 -37 1 -52 -5 -31 -13 -110 3 -110 22 0 6 -13 8 -31 6 -22 -4 -33 0 -40 14
-5 10 -20 18 -32 18 -31 1 -57 23 -57 49 0 18 -6 21 -38 21 -21 0 -44 -6 -51
-12 -10 -11 -15 -10 -24 2 -15 19 -80 47 -130 55 -27 4 -41 13 -49 31 -6 13
-16 24 -22 24 -6 0 -40 -20 -75 -45 -35 -24 -68 -42 -73 -39 -5 3 -14 1 -21
-4 -7 -5 -27 -13 -44 -17 -18 -3 -40 -16 -49 -28 l-15 -22 -16 23 c-8 12 -24
22 -34 22 -10 0 -23 8 -29 18 -9 16 -11 16 -21 -1 -7 -12 -17 -16 -30 -12 -15
5 -19 2 -19 -15 0 -18 -3 -19 -20 -10 -11 6 -25 8 -30 5 -11 -7 -50 16 -50 30
0 22 -46 32 -86 20 -22 -7 -59 -18 -84 -26 -25 -7 -49 -19 -53 -27 -7 -11 -13
-11 -32 2 -36 24 -87 5 -108 -39 -9 -20 -17 -42 -17 -49 0 -17 -22 -26 -65
-26 -21 0 -44 -9 -63 -25 -17 -14 -37 -23 -45 -19 -8 3 -18 1 -22 -5 -3 -6
-14 -11 -25 -11 -10 0 -20 -6 -23 -12 -9 -25 6 -79 23 -88 10 -6 20 -19 22
-31 3 -21 23 -34 96 -65 44 -18 69 -40 59 -51 -4 -3 -29 -8 -57 -11 -27 -2
-55 -11 -61 -18 -14 -17 -33 -18 -76 -2 -28 10 -36 10 -49 -3 -19 -20 -65 -12
-71 12 -4 15 -13 17 -56 13 -29 -2 -71 -5 -94 -7 -23 -1 -48 -8 -54 -14 -10
-10 -16 -9 -30 3 -27 24 -83 11 -98 -22 -6 -15 -9 -34 -6 -44 4 -11 0 -22 -9
-27 -9 -5 -17 -20 -18 -34 -1 -17 -8 -26 -18 -25 -9 1 -16 -9 -18 -26 -3 -22
2 -29 22 -34 27 -6 39 -26 30 -48 -3 -9 12 -32 36 -56 l42 -42 -23 -24 c-12
-13 -30 -24 -39 -24 -19 0 -40 -19 -40 -37 0 -21 79 -56 112 -49 20 4 30 1 34
-9 8 -19 33 -19 40 0 17 44 64 -19 64 -85 0 -17 6 -40 13 -51 9 -17 9 -23 0
-26 -7 -3 -13 -12 -13 -20 0 -11 -5 -13 -17 -7 -31 14 -113 11 -113 -4 0 -7
-7 -15 -15 -18 -8 -4 -15 -19 -15 -34 0 -16 -4 -32 -10 -35 -5 -3 -10 4 -10
15 0 16 -4 20 -16 16 -9 -3 -22 -6 -31 -6 -11 0 -13 -7 -8 -29 4 -21 2 -30
-10 -35 -11 -4 -14 -12 -10 -26 4 -13 1 -22 -9 -26 -9 -4 -16 -18 -16 -33 0
-19 8 -30 33 -41 25 -12 32 -21 30 -42 -2 -35 25 -46 33 -13 4 15 13 25 24 25
22 0 35 -16 20 -25 -20 -12 1 -24 34 -18 39 6 47 -3 33 -37 -5 -14 -11 -31
-13 -39 -1 -8 -17 -25 -33 -38 -17 -14 -31 -33 -31 -43 0 -10 -4 -21 -9 -24
-10 -7 -9 -37 3 -73 6 -19 15 -23 52 -23 24 0 52 -4 62 -9 23 -12 152 -31 211
-31 43 0 50 -3 55 -24 3 -14 17 -37 30 -53 13 -15 26 -44 30 -63 10 -52 83
-141 141 -170 26 -14 49 -30 51 -35 10 -48 41 -139 59 -180 63 -136 85 -189
85 -209 0 -25 -24 -63 -57 -90 -15 -11 -22 -25 -18 -35 5 -18 -55 -81 -89 -94
-9 -4 -16 -13 -16 -20 0 -8 -10 -22 -21 -33 -25 -22 -139 -171 -139 -182 0 -4
-17 -26 -39 -50 l-39 -42 -85 0 c-46 0 -99 3 -117 6 -27 6 -31 10 -26 30 3 13
9 35 12 48 4 16 -1 34 -17 55 -20 28 -27 30 -58 25 -33 -7 -91 -54 -91 -74 0
-5 -8 -15 -18 -22 -25 -18 -33 -54 -16 -69 23 -19 17 -28 -26 -39 l-40 -11 0
-58 0 -58 41 -7 c46 -7 139 -79 139 -107 0 -23 -21 -29 -106 -29 l-74 0 0 -80
c0 -44 3 -81 8 -81 4 -1 32 -3 62 -5 69 -4 155 -35 154 -56 -1 -10 6 -13 21
-11 17 4 36 -11 83 -63 61 -66 77 -104 50 -121 -7 -4 -42 -11 -78 -15 -36 -4
-89 -11 -117 -14 -51 -7 -64 0 -45 21 5 6 14 30 21 54 7 23 15 49 18 57 12 33
-18 10 -57 -43 -63 -86 -100 -112 -100 -73 0 11 -4 20 -10 20 -7 0 -10 -273
-10 -800 l0 -800 6400 0 6400 0 0 1658 0 1659 -24 11 c-26 12 -69 88 -92 162
-12 40 -12 46 3 57 9 7 22 13 29 13 21 0 34 26 50 106 9 43 20 83 25 89 11 11
12 52 1 59 -5 3 -25 0 -45 -6 -32 -10 -40 -9 -58 8 -21 19 -21 19 -40 -5 -10
-13 -19 -29 -19 -37 0 -20 -43 -28 -117 -21 -66 7 -116 -7 -125 -34 -4 -13
-81 22 -94 42 -10 16 -34 147 -34 185 0 20 11 44 35 71 19 23 35 44 35 47 0
13 -28 5 -45 -14 -38 -42 -74 -13 -76 63 -3 124 4 199 22 221 11 14 16 31 12
44 -4 18 -1 22 16 22 14 0 21 6 21 20 0 31 25 34 60 9 38 -28 65 -17 65 27 0
41 29 44 50 4 l16 -31 29 21 c17 12 30 26 30 31 0 5 6 9 14 9 12 0 26 20 26
36 0 2 -18 1 -39 -2 -33 -5 -41 -3 -50 15 -10 18 -8 27 12 54 13 17 27 40 31
50 9 26 30 16 34 -16 2 -19 9 -27 23 -27 11 0 31 -12 44 -26 21 -22 27 -25 40
-14 8 7 15 18 15 26 0 20 22 29 34 12 6 -8 28 -17 49 -21 l37 -6 0 390 c0 380
-1 390 -19 384 -32 -10 -37 16 -8 41 l27 23 0 748 c0 716 -1 749 -18 760 -14
8 -18 20 -14 41 3 24 -1 33 -19 43 -13 6 -27 17 -31 23 -4 6 -10 7 -14 3 -4
-3 -1 -14 6 -22 10 -13 11 -18 1 -28 -10 -9 -15 -8 -25 5 -11 15 -16 16 -57 2
-24 -8 -54 -26 -67 -40 -17 -18 -29 -23 -47 -18 -18 4 -33 -1 -56 -20 -35 -30
-42 -31 -59 -11 -7 8 -20 15 -29 15 -9 0 -23 6 -29 12 -10 10 -17 10 -33 0
-27 -17 -40 -7 -38 31 3 62 -37 115 -82 109 -9 -2 -19 6 -22 18 -7 28 -34 36
-56 16 -25 -23 -38 -20 -53 12 -11 22 -21 28 -55 30 -35 3 -42 0 -48 -18 -4
-14 -1 -28 9 -39 15 -17 15 -21 -1 -50 -15 -25 -24 -31 -51 -31 -43 0 -93 34
-85 58 4 13 3 13 -10 -3 -13 -16 -18 -18 -41 -7 -31 14 -33 31 -6 55 11 9 20
25 20 36 0 10 -9 21 -20 24 -11 3 -20 12 -20 21 0 13 -12 16 -65 16 -37 0 -65
-4 -65 -10 0 -5 5 -10 10 -10 6 0 10 -9 10 -20 0 -23 -18 -27 -26 -7 -3 8 -21
14 -41 15 -20 1 -44 4 -55 8 -10 3 -26 0 -34 -7 -12 -10 -16 -9 -21 9 -5 19
-12 22 -63 22 -38 0 -60 -4 -63 -12 -4 -10 -7 -10 -17 -1 -11 10 -16 9 -26 -5
-11 -16 -13 -16 -31 1 -25 22 -62 22 -79 0 -12 -17 -15 -17 -46 -2 -35 18
-108 23 -108 8 0 -12 -47 -11 -55 1 -11 18 -63 12 -70 -9z m505 -30 c0 -35
-23 -41 -52 -16 -16 13 -28 25 -28 27 0 2 18 4 40 5 33 2 40 -1 40 -16z m-405
-40 c3 -5 1 -12 -5 -16 -5 -3 -10 1 -10 9 0 18 6 21 15 7z m-111 -129 c5 -8
-45 -52 -59 -52 -10 0 -5 36 7 48 14 14 44 16 52 4z m815 -73 c-6 -11 -7 -33
-4 -50 5 -22 3 -31 -10 -35 -34 -14 -39 45 -7 93 17 28 37 20 21 -8z m-754
-19 c3 -5 1 -10 -4 -10 -6 0 -11 5 -11 10 0 6 2 10 4 10 3 0 8 -4 11 -10z
m-145 -10 c-19 -13 -30 -13 -30 0 0 6 10 10 23 10 18 0 19 -2 7 -10z m350 0
c0 -5 -4 -10 -10 -10 -5 0 -10 5 -10 10 0 6 5 10 10 10 6 0 10 -4 10 -10z
m-1020 -25 c0 -18 -5 -25 -19 -25 -11 0 -23 5 -26 10 -11 18 3 40 25 40 15 0
20 -7 20 -25z m687 -7 c-3 -8 -6 -5 -6 6 -1 11 2 17 5 13 3 -3 4 -12 1 -19z
m1918 12 c3 -5 1 -10 -4 -10 -6 0 -11 5 -11 10 0 6 2 10 4 10 3 0 8 -4 11 -10z
m-1685 -40 c0 -5 -4 -10 -10 -10 -5 0 -10 5 -10 10 0 6 5 10 10 10 6 0 10 -4
10 -10z m-50 -10 c0 -5 -2 -10 -4 -10 -3 0 -8 5 -11 10 -3 6 -1 10 4 10 6 0
11 -4 11 -10z m619 -8 c14 -27 -2 -46 -33 -38 -28 7 -33 25 -14 44 17 17 36
15 47 -6z m-349 -2 c0 -5 -9 -10 -21 -10 -11 0 -17 5 -14 10 3 6 13 10 21 10
8 0 14 -4 14 -10z m484 -61 c7 -74 -5 -100 -36 -73 -17 16 -19 16 -39 -4 -19
-22 -49 -29 -62 -15 -9 8 22 43 38 43 7 0 15 10 19 23 3 13 18 29 33 37 16 7
23 15 16 17 -20 7 -15 33 6 33 15 0 19 -11 25 -61z m-674 -9 c0 -5 -4 -10 -10
-10 -5 0 -10 5 -10 10 0 6 5 10 10 10 6 0 10 -4 10 -10z m140 -24 c-13 -13
-35 7 -25 24 5 8 11 8 21 -1 10 -8 12 -15 4 -23z m640 4 c0 -5 -7 -10 -15 -10
-8 0 -15 5 -15 10 0 6 7 10 15 10 8 0 15 -4 15 -10z m-1273 -26 c-9 -9 -28 6
-21 18 4 6 10 6 17 -1 6 -6 8 -13 4 -17z m543 11 c17 -20 5 -33 -25 -27 -28 5
-31 12 -13 30 16 16 23 15 38 -3z m-600 -16 c0 -5 -4 -9 -10 -9 -5 0 -10 7
-10 16 0 8 5 12 10 9 6 -3 10 -10 10 -16z m-323 -15 c-9 -9 -28 6 -21 18 4 6
10 6 17 -1 6 -6 8 -13 4 -17z m1621 -12 c2 -7 -6 -12 -17 -12 -21 0 -27 11
-14 24 9 9 26 2 31 -12z m-1461 -18 l24 -26 24 22 c25 24 45 20 45 -10 0 -11
-10 -20 -25 -24 -14 -4 -25 -13 -25 -21 0 -17 -16 -20 -25 -4 -4 6 -13 8 -21
5 -22 -8 -44 4 -44 24 0 11 -4 21 -10 25 -13 8 -1 35 17 35 9 0 27 -12 40 -26z
m203 -8 c0 -24 -16 -27 -35 -6 -18 19 -17 20 8 20 17 0 27 -5 27 -14z m-737
-48 c7 -25 1 -38 -18 -38 -16 0 -26 25 -19 45 9 22 31 18 37 -7z m-284 -23
c28 -29 31 -36 17 -41 -9 -3 -25 -4 -35 -1 -15 3 -21 -2 -26 -22 l-7 -26 -29
35 c-36 42 -36 52 -4 44 20 -5 25 -2 25 13 0 20 8 33 19 33 3 0 21 -16 40 -35z
m-22 -111 c-9 -9 -28 6 -21 18 4 6 10 6 17 -1 6 -6 8 -13 4 -17z m-279 -71
c-4 -22 -22 -20 -26 1 -2 10 3 16 13 16 10 0 15 -7 13 -17z m567 -13 c3 -5 1
-10 -4 -10 -6 0 -11 5 -11 10 0 6 2 10 4 10 3 0 8 -4 11 -10z m45 -30 c0 -5
-4 -10 -10 -10 -5 0 -10 5 -10 10 0 6 5 10 10 10 6 0 10 -4 10 -10z m-1740
-15 c0 -8 -4 -15 -9 -15 -13 0 -22 16 -14 24 11 11 23 6 23 -9z m473 -60 c4
-8 3 -16 -1 -19 -13 -8 -35 11 -28 23 10 15 23 14 29 -4z m-593 -165 c0 -5 -7
-10 -15 -10 -8 0 -15 5 -15 10 0 6 7 10 15 10 8 0 15 -4 15 -10z m70 -50 c0
-5 -2 -10 -4 -10 -3 0 -8 5 -11 10 -3 6 -1 10 4 10 6 0 11 -4 11 -10z m3054
-143 c15 -11 17 -17 7 -35 -14 -26 -27 -28 -35 -6 -9 22 -7 54 2 54 5 0 16 -6
26 -13z m-3196 -35 c2 -7 -3 -12 -12 -12 -9 0 -16 7 -16 16 0 17 22 14 28 -4z
m1480 -24 c-4 -30 -48 -39 -48 -10 0 10 3 22 7 25 3 4 15 7 25 7 14 0 19 -6
16 -22z m-1383 -1 c21 -16 13 -37 -15 -37 -22 0 -34 15 -26 35 7 19 17 19 41
2z m525 -32 c55 -11 70 -11 105 0 44 16 58 9 53 -26 -3 -22 -8 -24 -52 -24
-39 0 -50 -4 -57 -20 -13 -33 -10 -42 12 -48 15 -4 23 0 26 14 8 29 69 23 66
-6 -10 -87 -25 -106 -68 -87 -15 7 -26 8 -30 2 -4 -6 -15 -10 -26 -10 -19 0
-20 -1 -3 -17 17 -17 16 -18 -19 -24 -48 -8 -55 -16 -31 -33 15 -12 16 -17 7
-27 -10 -10 -18 -8 -38 11 -25 24 -33 50 -15 50 6 0 8 11 4 26 -4 17 -2 29 7
35 11 8 10 12 -5 24 -11 8 -27 15 -36 15 -21 0 -40 20 -40 40 0 10 14 36 30
58 17 23 30 46 30 52 0 12 1 12 80 -5z m630 -54 c0 -11 -7 -27 -16 -35 -22
-23 -54 -21 -54 3 0 20 35 51 57 51 7 0 13 -9 13 -19z m1001 -38 c29 8 96 -58
80 -77 -6 -7 -8 -22 -4 -34 7 -27 -5 -28 -46 -4 -36 20 -39 32 -11 39 22 6 24
11 10 33 -9 13 -12 13 -24 -2 -7 -10 -25 -18 -39 -18 -24 0 -25 -3 -20 -35 4
-25 2 -36 -9 -40 -23 -9 -66 12 -73 34 -3 12 -13 21 -21 21 -17 0 -17 5 -3 32
8 15 17 19 38 15 22 -5 30 0 50 31 22 33 25 34 37 18 9 -13 20 -17 35 -13z
m-1261 12 c0 -15 -34 -55 -46 -55 -18 0 -18 6 4 35 15 22 42 34 42 20z m3600
-15 c0 -5 -4 -10 -10 -10 -5 0 -10 5 -10 10 0 6 5 10 10 10 6 0 10 -4 10 -10z
m-3235 -20 c6 -10 -13 -50 -29 -62 -6 -4 -18 -2 -29 3 -26 14 -18 51 13 60 36
10 38 10 45 -1z m-435 -10 c0 -5 -5 -10 -11 -10 -5 0 -7 5 -4 10 3 6 8 10 11
10 2 0 4 -4 4 -10z m150 -10 c0 -5 -5 -10 -11 -10 -5 0 -7 5 -4 10 3 6 8 10
11 10 2 0 4 -4 4 -10z m214 -45 c25 -38 20 -48 -14 -28 -29 17 -37 33 -23 46
11 12 20 8 37 -18z m-249 -15 c-3 -5 -11 -10 -16 -10 -6 0 -7 5 -4 10 3 6 11
10 16 10 6 0 7 -4 4 -10z m3190 -50 c3 -5 1 -10 -4 -10 -6 0 -11 5 -11 10 0 6
2 10 4 10 3 0 8 -4 11 -10z m-3770 -20 c-3 -5 -12 -7 -20 -3 -21 7 -19 13 6
13 11 0 18 -4 14 -10z m70 -21 c-8 -12 -35 -12 -35 0 0 11 22 20 33 14 4 -2 5
-9 2 -14z m4280 1 c3 -5 1 -10 -4 -10 -6 0 -11 5 -11 10 0 6 2 10 4 10 3 0 8
-4 11 -10z m-4334 -23 c-13 -13 -26 -3 -16 12 3 6 11 8 17 5 6 -4 6 -10 -1
-17z m1189 -17 c0 -5 6 -10 13 -10 8 0 22 -9 33 -21 18 -20 18 -21 -1 -35 -10
-8 -22 -14 -27 -14 -4 0 -8 -10 -8 -23 0 -25 -47 -52 -74 -41 -19 7 -20 13 -6
49 8 20 16 26 30 22 23 -6 34 17 20 43 -14 26 -12 40 5 40 8 0 15 -4 15 -10z
m-1610 -55 c0 -16 -42 -30 -65 -21 -8 3 -15 10 -15 15 0 8 18 14 68 20 6 0 12
-6 12 -14z m2008 -25 c7 -11 19 -20 27 -20 9 0 20 -12 25 -26 9 -22 15 -25 37
-21 54 10 76 -25 27 -43 -22 -9 -25 -14 -19 -38 4 -15 15 -35 26 -45 20 -19
25 -43 10 -49 -14 -5 -1 -58 14 -58 7 0 15 -6 18 -14 3 -8 28 -16 61 -20 61
-8 74 -17 51 -36 -30 -25 -18 -55 30 -74 35 -15 45 -24 45 -42 0 -28 -37 -55
-71 -52 -20 3 -25 -2 -27 -24 -3 -23 1 -28 18 -28 34 0 18 -25 -18 -28 -27 -3
-35 2 -49 27 -22 37 -82 69 -94 49 -6 -8 -3 -14 7 -16 25 -6 14 -64 -16 -79
-29 -14 -42 -43 -28 -60 6 -7 8 -25 5 -40 -6 -26 -5 -26 8 4 8 17 25 39 37 47
25 18 83 21 93 6 3 -5 23 -14 43 -20 31 -8 42 -19 66 -64 16 -29 27 -60 23
-68 -8 -21 -121 -62 -151 -54 -14 3 -36 1 -50 -6 -19 -8 -32 -8 -50 0 -14 6
-27 7 -33 1 -6 -6 -35 -3 -76 7 -62 16 -67 19 -67 44 0 56 -13 91 -35 100 -26
10 -36 30 -29 58 4 13 -3 26 -20 39 -23 19 -41 52 -99 183 -14 30 -30 92 -36
137 -14 97 -4 132 42 144 15 4 36 18 46 30 16 20 21 21 34 10 10 -8 27 -10 46
-6 17 4 32 2 36 -5 4 -6 16 2 29 22 13 18 20 38 16 43 -4 6 -13 27 -20 49 -10
32 -10 40 1 47 24 15 54 10 67 -11z m-8598 -62 c0 -19 -51 -41 -64 -28 -7 7
-3 10 11 10 11 0 23 7 27 15 7 18 26 20 26 3z m7095 -2 c40 -2 60 -7 60 -15 0
-7 -27 -22 -60 -34 -33 -11 -72 -32 -86 -46 -34 -34 -115 -91 -129 -91 -6 0
-21 -7 -35 -16 -24 -16 -95 -11 -95 7 0 20 24 59 37 59 7 0 23 16 34 35 21 35
42 44 54 24 5 -6 11 -4 19 7 9 11 22 15 39 12 19 -4 27 -1 27 9 0 8 -6 13 -12
12 -27 -3 -48 1 -48 11 0 20 55 39 95 34 22 -3 67 -6 100 -8z m1366 -19 c-13
-13 -26 -3 -16 12 3 6 11 8 17 5 6 -4 6 -10 -1 -17z m2914 -46 c3 -5 1 -12 -5
-16 -5 -3 -10 1 -10 9 0 18 6 21 15 7z m-9815 -77 c0 -9 -5 -14 -12 -12 -18 6
-21 28 -4 28 9 0 16 -7 16 -16z m-257 -20 c9 -3 17 -14 17 -25 0 -10 7 -19 15
-19 20 0 20 -50 0 -76 -13 -18 -15 -18 -45 -1 -18 9 -40 17 -51 17 -11 0 -23
10 -29 24 -4 13 -20 26 -34 30 -34 8 -33 27 2 48 26 16 72 16 125 2z m1107 1
c13 -16 6 -35 -14 -35 -18 0 -39 27 -31 40 9 14 31 12 45 -5z m-100 -15 c0 -5
-4 -10 -10 -10 -5 0 -10 5 -10 10 0 6 5 10 10 10 6 0 10 -4 10 -10z m-1501
-42 c14 -40 21 -128 10 -128 -6 0 -13 9 -16 20 -3 11 -14 20 -24 20 -25 0 -49
38 -49 77 0 31 2 33 35 33 28 0 37 -5 44 -22z m8291 12 c0 -5 -4 -10 -9 -10
-6 0 -13 5 -16 10 -3 6 1 10 9 10 9 0 16 -4 16 -10z m-7620 -20 c0 -11 -6 -20
-14 -20 -18 0 -29 16 -21 30 11 18 35 11 35 -10z m115 11 c3 -5 1 -12 -5 -16
-5 -3 -10 1 -10 9 0 18 6 21 15 7z m505 -6 c0 -9 -7 -18 -16 -22 -18 -7 -39
11 -30 26 11 17 46 13 46 -4z m-686 -30 c4 -10 -1 -15 -14 -15 -11 0 -20 7
-20 15 0 8 6 15 14 15 8 0 16 -7 20 -15z m5171 -38 c19 -15 13 -37 -10 -37
-16 0 -38 34 -28 44 9 9 17 8 38 -7z m-5195 -6 c0 -6 -4 -13 -10 -16 -5 -3
-10 1 -10 9 0 9 5 16 10 16 6 0 10 -4 10 -9z m818 -15 c3 -13 -1 -17 -14 -14
-11 2 -20 11 -22 22 -3 13 1 17 14 14 11 -2 20 -11 22 -22z m-2838 0 c0 -3 -4
-8 -10 -11 -5 -3 -10 -1 -10 4 0 6 5 11 10 11 6 0 10 -2 10 -4z m8894 -161
c57 -127 60 -156 12 -120 -10 8 -21 29 -25 47 -5 23 -12 32 -24 30 -16 -3 -21
8 -18 35 1 7 -7 17 -18 22 -11 6 -27 35 -36 65 -45 142 37 83 109 -79z m-7246
139 c29 -8 28 -22 -2 -34 -13 -5 -26 -14 -28 -20 -2 -6 -16 -12 -33 -13 -38
-3 -45 26 -13 53 25 21 40 23 76 14z m8032 -40 c0 -17 -24 -29 -40 -19 -8 5
-6 13 6 26 18 20 34 17 34 -7z m-8325 6 c-3 -5 -11 -10 -16 -10 -6 0 -7 5 -4
10 3 6 11 10 16 10 6 0 7 -4 4 -10z m-300 -29 c3 -6 -3 -15 -14 -21 -21 -11
-37 2 -26 20 8 13 32 13 40 1z m116 -4 c-1 -12 -15 -9 -19 4 -3 6 1 10 8 8 6
-3 11 -8 11 -12z m8759 -30 c0 -11 -11 -35 -26 -54 -19 -25 -22 -33 -10 -33 9
0 16 5 16 10 0 13 21 13 40 0 13 -9 10 -14 -15 -36 -35 -32 -40 -74 -10 -90
20 -10 23 -25 10 -56 -6 -15 -1 -18 29 -18 41 0 48 -20 19 -52 -17 -19 -5 -26
14 -7 16 16 78 7 78 -11 0 -11 -12 -15 -45 -15 l-45 0 3 -38 c5 -58 -36 -90
-68 -52 -18 21 -40 19 -40 -5 0 -11 7 -20 15 -20 21 0 19 -23 -5 -43 -18 -15
-19 -19 -6 -32 10 -10 12 -27 9 -55 -4 -32 -2 -40 10 -40 8 0 17 -7 21 -15 4
-10 14 -13 34 -9 17 4 32 1 36 -5 4 -6 18 -11 30 -11 14 0 30 -10 40 -25 18
-28 13 -50 -10 -41 -8 3 -17 -1 -20 -9 -4 -8 -10 -15 -15 -15 -6 0 -19 -9 -31
-20 -25 -23 -76 -27 -84 -6 -4 10 -15 13 -40 9 -49 -8 -79 23 -104 106 -11 36
-33 86 -50 111 -38 57 -38 75 0 95 17 9 36 28 42 43 7 15 18 35 26 44 8 9 11
22 7 27 -10 18 -25 12 -25 -9 0 -11 -15 -37 -34 -58 -42 -45 -54 -38 -65 39
-4 30 -17 73 -29 96 -12 23 -22 51 -22 61 0 11 -9 31 -20 45 -11 14 -20 30
-20 36 0 6 -6 20 -12 31 -12 18 -8 25 30 59 31 28 54 40 88 45 56 7 67 1 60
-30 -9 -35 1 -29 20 12 19 39 49 57 75 43 13 -6 21 -2 33 16 14 22 19 23 41
13 15 -6 25 -20 25 -31z m-8580 12 c4 -8 12 -24 18 -36 16 -30 15 -43 -3 -43
-8 0 -15 -9 -15 -19 0 -28 -12 -32 -51 -18 -52 18 -67 50 -29 62 11 3 20 15
20 25 0 22 28 52 43 47 6 -2 14 -10 17 -18z m10640 1 c0 -5 -4 -10 -10 -10 -5
0 -10 5 -10 10 0 6 5 10 10 10 6 0 10 -4 10 -10z m-10852 -47 c3 -17 -2 -23
-16 -23 -18 0 -32 18 -32 42 0 21 45 3 48 -19z m2872 7 c0 -5 -4 -10 -10 -10
-5 0 -10 5 -10 10 0 6 5 10 10 10 6 0 10 -4 10 -10z m3185 -10 c3 -5 -1 -10
-9 -10 -9 0 -16 5 -16 10 0 6 4 10 9 10 6 0 13 -4 16 -10z m63 -2 c-6 -18 -28
-21 -28 -4 0 9 7 16 16 16 9 0 14 -5 12 -12z m-4258 -24 c0 -8 -7 -14 -15 -14
-15 0 -21 21 -9 33 10 9 24 -2 24 -19z m9000 2 c0 -3 -4 -8 -10 -11 -5 -3 -10
-1 -10 4 0 6 5 11 10 11 6 0 10 -2 10 -4z m-9637 -13 c13 -12 -15 -33 -44 -33
-32 0 -48 18 -28 31 16 10 63 12 72 2z m6181 -24 c20 -12 36 -25 36 -29 0 -5
-28 -22 -62 -39 -58 -27 -64 -29 -80 -14 -10 9 -18 22 -18 29 0 7 -6 14 -12
17 -10 4 -10 7 -1 17 9 10 15 11 27 1 11 -9 17 -8 30 4 9 9 16 21 16 26 0 15
27 10 64 -12z m-6300 2 c11 -17 -20 -30 -57 -24 -36 5 -44 13 -30 26 10 10 81
8 87 -2z m1192 -2 c3 -6 1 -16 -5 -22 -18 -18 -13 -31 19 -49 33 -19 41 -55
14 -65 -24 -9 -66 37 -59 64 4 16 0 25 -10 29 -18 7 -19 26 -3 42 15 15 35 15
44 1z m-2311 -9 c3 -5 -1 -10 -10 -10 -9 0 -13 5 -10 10 3 6 8 10 10 10 2 0 7
-4 10 -10z m2104 -17 c3 -2 0 -8 -6 -14 -16 -16 -57 -7 -61 13 -3 15 2 17 30
11 18 -3 35 -8 37 -10z m-3559 -13 c0 -5 -4 -10 -10 -10 -5 0 -10 5 -10 10 0
6 5 10 10 10 6 0 10 -4 10 -10z m3438 -7 c2 -8 -6 -13 -22 -13 -25 0 -33 10
-19 24 10 10 36 3 41 -11z m-3429 -29 c52 -39 63 -55 50 -71 -18 -20 -47 -15
-64 11 -9 13 -27 27 -41 30 -26 7 -31 25 -12 44 17 17 27 15 67 -14z m3147
-15 c47 -15 68 -28 76 -44 6 -13 16 -21 23 -18 27 10 55 -16 55 -51 0 -54 -34
-67 -102 -41 -13 5 -18 2 -18 -9 0 -15 -11 -20 -37 -17 -6 1 -14 -3 -18 -9
-10 -16 -22 -12 -28 10 -6 23 -33 26 -72 8 -23 -10 -29 -9 -48 11 l-22 23 29
-6 c23 -6 34 -2 57 20 31 29 31 62 1 96 -18 22 -9 48 18 48 11 0 50 -9 86 -21z
m5364 11 c0 -5 -4 -10 -10 -10 -5 0 -10 5 -10 10 0 6 5 10 10 10 6 0 10 -4 10
-10z m527 -6 c7 -18 -27 -56 -76 -86 -27 -17 -37 -19 -52 -10 -10 7 -20 8 -24
2 -5 -7 -101 -40 -119 -40 -12 0 -5 23 16 52 27 38 92 68 140 63 29 -3 37 0
41 16 6 24 65 27 74 3z m-5607 -14 c0 -10 9 -24 20 -30 26 -14 26 -36 -1 -43
-11 -3 -23 -15 -26 -26 -8 -31 -21 -26 -38 15 -19 46 -19 54 0 54 8 0 15 8 15
18 0 10 3 22 7 25 12 13 23 7 23 -13z m5318 -4 c1 -2 -5 -17 -14 -34 -18 -37
-50 -62 -78 -62 -10 0 -24 -7 -31 -17 -19 -26 -47 -9 -39 24 5 23 4 26 -7 16
-23 -22 -51 -16 -47 10 2 16 11 23 33 25 17 2 35 8 42 14 9 7 17 5 28 -6 9 -9
26 -16 37 -16 16 0 19 5 14 24 -3 12 -2 26 1 30 6 6 53 0 61 -8z m-5398 -20
c0 -2 -7 -16 -15 -32 -12 -23 -15 -25 -21 -11 -6 17 11 47 27 47 5 0 9 -2 9
-4z m8684 -5 c8 -13 -21 -34 -39 -27 -25 9 -18 36 9 36 14 0 27 -4 30 -9z
m-11900 -32 c17 -33 14 -49 -9 -49 -9 0 -12 -6 -9 -15 4 -9 0 -15 -10 -15 -23
0 -49 66 -36 91 16 29 46 23 64 -12z m8200 2 c9 -14 -22 -34 -40 -27 -13 5
-14 9 -4 21 14 17 36 20 44 6z m679 -43 c6 -41 3 -44 -30 -32 -33 11 -39 27
-18 48 25 25 42 19 48 -16z m97 23 c0 -14 -18 -23 -30 -16 -6 4 -8 11 -5 16 8
12 35 12 35 0z m-8829 -60 c6 -43 -9 -80 -28 -68 -5 3 -9 30 -8 59 3 64 2 61
18 56 6 -3 15 -24 18 -47z m3509 39 c0 -5 -4 -10 -10 -10 -5 0 -10 5 -10 10 0
6 5 10 10 10 6 0 10 -4 10 -10z m4710 -6 c0 -9 -7 -14 -17 -12 -25 5 -28 28
-4 28 12 0 21 -6 21 -16z m-130 -34 c0 -5 -4 -10 -10 -10 -5 0 -10 5 -10 10 0
6 5 10 10 10 6 0 10 -4 10 -10z m3548 -28 c4 -24 -7 -29 -26 -10 -18 18 -15
40 6 36 9 -2 18 -13 20 -26z m-10633 -28 c0 -10 -8 -20 -17 -22 -18 -3 -26 27
-11 42 12 11 28 0 28 -20z m-1187 -2 c2 -7 -3 -12 -12 -12 -9 0 -16 7 -16 16
0 17 22 14 28 -4z m11922 8 c0 -5 -2 -10 -4 -10 -3 0 -8 5 -11 10 -3 6 -1 10
4 10 6 0 11 -4 11 -10z m-10703 -45 c3 -9 3 -18 1 -21 -9 -9 -38 8 -38 22 0
19 29 18 37 -1z m-1392 -16 c4 -5 19 -7 34 -4 31 7 46 -6 56 -46 4 -17 1 -30
-10 -39 -13 -11 -19 -10 -38 7 -31 29 -63 44 -80 37 -19 -7 -31 24 -16 42 14
17 45 18 54 3z m145 -39 c0 -19 -5 -30 -14 -30 -22 0 -28 17 -16 40 16 29 30
25 30 -10z m9515 5 c45 -22 52 -23 72 -10 32 22 51 19 78 -12 l24 -28 -2 30
-2 30 60 -3 c33 -2 66 -8 72 -14 15 -12 17 -84 3 -93 -5 -3 -10 -12 -10 -20 0
-10 7 -11 35 -2 31 9 36 8 54 -14 11 -13 24 -35 29 -49 17 -45 32 -144 24
-152 -5 -5 -33 -3 -62 3 -30 6 -77 9 -106 6 -50 -5 -56 -3 -102 33 -27 22 -61
56 -75 77 -15 21 -45 56 -67 78 -22 21 -40 44 -40 50 0 6 -16 30 -35 52 -58
68 -40 82 50 38z m-8717 -7 c-6 -18 -28 -21 -28 -4 0 9 7 16 16 16 9 0 14 -5
12 -12z m9472 -13 c0 -8 -4 -15 -10 -15 -5 0 -10 7 -10 15 0 8 5 15 10 15 6 0
10 -7 10 -15z m-8864 -36 c3 -6 2 -15 -3 -20 -12 -12 -53 1 -53 17 0 17 46 19
56 3z m8956 -24 c0 -5 -5 -11 -11 -13 -6 -2 -11 4 -11 13 0 9 5 15 11 13 6 -2
11 -8 11 -13z m-9029 -27 c24 -38 -34 -79 -85 -60 -24 9 -28 8 -28 -9 0 -10
14 -32 30 -49 31 -32 41 -85 19 -107 -8 -8 -8 -17 0 -31 6 -11 11 -44 11 -72
0 -28 14 -112 31 -186 17 -74 28 -145 25 -157 -3 -12 -23 -44 -45 -72 -22 -27
-48 -60 -58 -73 -21 -27 -44 -22 -63 13 -12 22 -9 30 24 85 21 34 36 63 34 65
-8 8 -68 -54 -68 -69 0 -27 -79 -20 -153 13 -36 16 -68 34 -71 40 -4 6 -16 11
-27 11 -25 0 -24 6 8 39 23 23 27 35 24 73 -3 54 7 60 99 62 43 1 60 6 78 24
28 28 28 29 -7 24 -24 -3 -30 0 -39 25 -12 36 1 63 29 63 16 0 53 14 67 25 8
7 -12 35 -25 35 -12 0 -14 8 -10 35 5 30 3 36 -16 40 -12 3 -44 -3 -72 -13
-41 -15 -50 -22 -50 -43 0 -33 -24 -74 -37 -61 -5 5 -29 7 -54 4 -36 -4 -44
-2 -44 12 0 9 8 16 20 16 31 0 24 14 -20 39 -46 26 -66 22 -80 -14 -12 -32
-34 -32 -73 1 -24 20 -38 25 -63 21 -18 -3 -35 -3 -38 0 -10 10 15 33 36 33
35 0 138 62 169 102 31 38 56 47 75 28 14 -14 100 -19 149 -10 l40 8 -35 1
c-53 2 -80 12 -80 28 0 12 8 14 35 9 24 -5 42 -2 59 9 19 12 29 14 44 6 37
-20 76 -15 120 13 76 48 98 52 115 24z m1885 -10 c-6 -18 -28 -21 -28 -4 0 9
7 16 16 16 9 0 14 -5 12 -12z m65 -13 c4 -8 2 -17 -4 -21 -15 -9 -39 3 -39 21
0 19 36 20 43 0z m-2354 -39 c9 -10 9 -16 1 -21 -12 -7 -40 11 -40 26 0 14 26
10 39 -5z m500 -8 c-2 -7 7 -44 19 -82 21 -64 30 -175 16 -189 -12 -12 -44 14
-69 57 -19 32 -25 57 -25 99 0 38 -5 61 -16 72 -23 22 -11 43 28 48 18 2 37 5
41 5 4 1 7 -4 6 -10z m6538 -24 c-9 -9 -28 6 -21 18 4 6 10 6 17 -1 6 -6 8
-13 4 -17z m2413 -15 c0 -20 -15 -26 -25 -9 -9 15 3 43 15 35 5 -3 10 -15 10
-26z m-2460 -78 c0 -12 -29 -35 -36 -28 -11 10 5 37 21 37 8 0 15 -4 15 -9z
m-6568 -87 c12 -26 40 -64 61 -85 27 -27 37 -44 33 -57 -11 -35 -66 -112 -79
-112 -7 0 -22 19 -32 43 -27 59 -35 257 -11 257 3 0 15 -21 28 -46z m-1564 24
c-6 -18 -28 -21 -28 -4 0 9 7 16 16 16 9 0 14 -5 12 -12z m40 -30 c16 -20 3
-68 -19 -68 -13 0 -19 7 -19 24 0 49 17 69 38 44z m783 -14 c10 -13 10 -17 -2
-25 -23 -14 -42 -11 -35 7 3 9 6 20 6 25 0 14 16 11 31 -7z m90 -37 c-1 -12
-15 -9 -19 4 -3 6 1 10 8 8 6 -3 11 -8 11 -12z m2109 -52 c0 -8 -7 -15 -15
-15 -8 0 -15 7 -15 15 0 8 7 15 15 15 8 0 15 -7 15 -15z m-2305 -5 c3 -6 18
-7 31 -4 23 6 25 4 22 -22 -3 -27 -6 -29 -48 -29 -46 0 -60 15 -46 51 6 16 32
19 41 4z m512 -16 c9 -25 -20 -41 -90 -49 -34 -4 -70 -12 -82 -18 -11 -5 -27
-13 -35 -18 -8 -4 -13 -13 -11 -21 2 -7 6 -20 8 -29 6 -21 -23 -32 -48 -18
-14 7 -24 7 -32 1 -7 -6 -32 -9 -57 -8 -38 2 -46 6 -57 32 -16 39 -16 54 2 54
8 0 15 -7 15 -15 0 -26 39 -17 54 14 10 19 26 30 47 35 18 3 41 14 51 22 11
11 27 15 45 11 16 -3 53 1 83 8 75 18 100 18 107 -1z m11203 -218 c0 -47 -27
-97 -65 -122 -24 -16 -26 -15 -65 20 -24 21 -50 36 -65 36 -28 0 -100 33 -111
51 -4 7 1 18 12 26 15 11 40 13 116 8 89 -7 99 -5 123 13 37 29 55 19 55 -32z
m-11642 -10 c5 -23 -14 -36 -53 -36 -51 0 -61 14 -29 39 33 26 77 25 82 -3z
m360 -80 c26 -13 56 -34 67 -46 11 -12 37 -31 57 -41 35 -18 37 -21 43 -85 7
-57 5 -69 -12 -93 -11 -14 -23 -35 -27 -46 -8 -28 -72 -76 -103 -78 -14 -1
-36 -12 -49 -24 -25 -25 -49 -30 -59 -13 -4 6 -21 8 -39 4 -36 -6 -66 14 -66
45 0 31 -31 49 -83 46 -26 -1 -50 -5 -54 -9 -8 -8 -43 24 -43 40 0 15 55 44
83 44 14 0 17 4 12 18 -13 35 -9 41 40 57 14 4 16 8 7 14 -10 6 -9 14 2 37 15
27 19 29 85 30 38 1 74 5 80 8 16 10 13 47 -5 67 -17 19 -13 49 6 49 6 0 32
-11 58 -24z m251 -149 c12 -15 5 -27 -16 -27 -7 0 -13 9 -13 20 0 23 13 26 29
7z m-691 -149 c7 -7 12 -19 12 -27 1 -26 85 -90 145 -111 59 -20 104 -49 105
-65 0 -20 -92 -87 -152 -111 -84 -33 -95 -32 -108 14 -5 20 -19 51 -30 67 -26
39 -25 79 1 121 21 34 21 34 1 67 -28 45 -8 79 26 45z m8672 -1349 c-7 -11
-14 -18 -17 -15 -8 8 5 36 17 36 7 0 7 -6 0 -21z m-60 -41 c0 -18 -2 -20 -9
-8 -6 8 -7 18 -5 22 9 14 14 9 14 -14z m290 7 c0 -8 -4 -15 -10 -15 -5 0 -10
7 -10 15 0 8 5 15 10 15 6 0 10 -7 10 -15z m-50 -22 c0 -35 -14 -58 -29 -49
-10 6 -6 47 6 69 10 17 23 5 23 -20z m210 7 c0 -5 -4 -10 -10 -10 -5 0 -10 5
-10 10 0 6 5 10 10 10 6 0 10 -4 10 -10z m90 -4 c0 -8 -4 -18 -10 -21 -5 -3
-10 3 -10 14 0 12 5 21 10 21 6 0 10 -6 10 -14z m-865 -26 c-5 -8 -11 -8 -17
-2 -6 6 -7 16 -3 22 5 8 11 8 17 2 6 -6 7 -16 3 -22z m1975 10 c0 -5 -7 -10
-15 -10 -8 0 -15 5 -15 10 0 6 7 10 15 10 8 0 15 -4 15 -10z m-1320 -15 c0 -8
-7 -15 -15 -15 -8 0 -15 7 -15 15 0 8 7 15 15 15 8 0 15 -7 15 -15z m1485 -25
c18 -34 12 -70 -11 -70 -9 0 -14 11 -14 34 0 19 -3 41 -6 50 -11 29 15 17 31
-14z m-9829 5 c4 -8 3 -22 0 -30 -8 -22 -46 -1 -46 25 0 24 38 28 46 5z m134
0 c7 -8 19 -15 27 -15 15 0 15 -12 -2 -54 -6 -14 -4 -18 6 -14 8 2 15 14 17
25 5 35 32 36 76 4 37 -26 61 -71 38 -71 -5 0 -12 -15 -15 -32 -6 -41 24 -78
63 -78 40 0 50 -18 50 -91 0 -66 -1 -67 -30 -78 -25 -8 -32 -7 -37 4 -9 24
-21 17 -15 -10 5 -30 -11 -38 -53 -27 -42 12 -75 -6 -75 -41 0 -22 -4 -28 -17
-25 -23 4 -29 41 -9 57 11 9 12 20 5 43 -4 17 -6 35 -3 39 2 5 -13 17 -36 29
-39 20 -52 44 -27 53 22 8 -2 20 -39 19 -35 -1 -36 0 -32 28 3 22 0 30 -10 30
-11 0 -13 7 -6 33 4 17 7 58 5 89 -3 80 9 98 63 98 27 0 48 -6 56 -15z m7537
-27 c-3 -7 -5 -2 -5 12 0 14 2 19 5 13 2 -7 2 -19 0 -25z m-7843 -44 c3 -9 3
-20 0 -25 -11 -19 7 -61 41 -95 19 -19 38 -47 41 -62 4 -15 14 -35 22 -45 22
-25 8 -34 -77 -52 -89 -19 -115 -7 -50 23 33 15 39 21 22 21 -25 1 -31 16 -10
24 10 4 10 7 0 18 -7 7 -13 21 -13 31 0 11 -7 18 -20 18 -11 0 -20 4 -20 9 0
13 -63 11 -71 -2 -4 -5 -11 -7 -17 -3 -16 10 15 65 64 114 43 43 77 54 88 26z
m9516 -19 c0 -8 -4 -15 -10 -15 -5 0 -10 7 -10 15 0 8 5 15 10 15 6 0 10 -7
10 -15z m-1962 -75 c-2 -8 -10 -15 -18 -15 -17 0 -25 28 -15 53 6 15 8 15 21
-3 8 -11 13 -26 12 -35z m-4018 -70 c0 -38 -49 -96 -73 -87 -28 11 -20 55 15
88 41 37 58 37 58 -1z m3330 -46 c0 -19 5 -34 10 -34 7 0 7 -7 0 -20 -8 -16
-17 -19 -33 -14 -27 8 -24 2 -31 49 -6 35 -4 41 16 51 31 14 38 9 38 -32z
m-3298 21 c0 -5 -5 -11 -11 -13 -6 -2 -11 4 -11 13 0 9 5 15 11 13 6 -2 11 -8
11 -13z m-1212 -26 c0 -20 -15 -26 -24 -10 -8 13 4 42 15 35 5 -3 9 -14 9 -25z
m4410 -3 c0 -16 -28 -42 -36 -33 -3 3 -3 15 1 26 7 23 35 29 35 7z m-192 -14
c2 -7 -3 -12 -12 -12 -9 0 -16 7 -16 16 0 17 22 14 28 -4z m-2974 -11 c9 -14
-4 -41 -20 -41 -8 0 -14 8 -14 18 0 29 22 43 34 23z m-3774 -21 c0 -5 -7 -10
-15 -10 -8 0 -15 5 -15 10 0 6 7 10 15 10 8 0 15 -4 15 -10z m6970 -28 c0 -16
-7 -37 -15 -48 -24 -31 -37 1 -17 43 19 40 32 42 32 5z m-4990 -6 c0 -14 -4
-27 -9 -30 -10 -7 -20 23 -14 42 8 21 23 13 23 -12z m4800 -2 c0 -16 -16 -19
-25 -4 -8 13 4 32 16 25 5 -4 9 -13 9 -21z m-6495 2 c36 9 33 -19 -5 -46 -16
-12 -30 -27 -30 -33 0 -8 3 -8 9 1 4 7 21 20 36 28 38 20 51 5 31 -35 -17 -31
-39 -40 -51 -21 -5 8 -11 7 -21 -1 -11 -9 -19 -8 -35 6 -11 11 -17 25 -15 32
10 24 -12 23 -28 -2 -12 -19 -25 -25 -51 -25 -32 0 -35 3 -35 29 0 16 7 34 15
41 24 20 117 39 137 28 10 -5 29 -6 43 -2z m-245 -4 c0 -4 -5 -13 -12 -20 -9
-9 -6 -12 16 -12 24 0 26 -3 20 -22 -3 -13 -13 -27 -20 -31 -8 -4 -14 -19 -14
-32 0 -18 -4 -23 -15 -19 -21 9 -29 48 -17 84 7 18 7 32 1 35 -5 4 -7 11 -4
16 7 11 45 12 45 1z m678 -88 c-4 -23 -26 -30 -34 -10 -8 20 15 51 29 37 5 -5
7 -17 5 -27z m869 0 c-9 -9 -28 6 -21 18 4 6 10 6 17 -1 6 -6 8 -13 4 -17z
m-2453 10 c17 -7 21 -31 7 -53 -12 -19 -68 -5 -76 20 -4 10 -3 23 0 29 7 11
45 13 69 4z m-308 -29 c14 -22 15 -32 5 -65 -7 -23 -18 -40 -26 -40 -27 0 -68
104 -48 123 15 16 53 6 69 -18z m1784 15 c0 -5 -4 -10 -10 -10 -5 0 -10 5 -10
10 0 6 5 10 10 10 6 0 10 -4 10 -10z m-467 -22 c2 -7 0 -24 -5 -37 -8 -22 -10
-23 -24 -9 -10 10 -14 24 -9 37 7 23 30 28 38 9z m-1203 -11 c0 -20 -57 -71
-64 -58 -11 17 23 71 44 71 11 0 20 -6 20 -13z m2430 -32 c0 -8 -4 -15 -10
-15 -5 0 -10 7 -10 15 0 8 5 15 10 15 6 0 10 -7 10 -15z m-700 -9 c0 -8 -4
-18 -10 -21 -5 -3 -10 3 -10 14 0 12 5 21 10 21 6 0 10 -6 10 -14z m730 -16
c0 -5 -4 -10 -10 -10 -5 0 -10 5 -10 10 0 6 5 10 10 10 6 0 10 -4 10 -10z"/>
<path d="M9960 5353 c0 -5 4 -14 9 -22 7 -11 11 -9 20 8 10 18 9 21 -9 21 -11
0 -20 -3 -20 -7z"/>
<path d="M9890 5195 l-23 -25 31 0 c36 0 50 16 30 36 -12 12 -17 11 -38 -11z"/>
<path d="M10060 5075 c0 -8 2 -15 4 -15 2 0 11 -3 19 -6 9 -3 16 3 20 15 4 17
0 21 -19 21 -15 0 -24 -6 -24 -15z"/>
<path d="M10066 4557 c3 -10 9 -15 12 -12 3 3 0 11 -7 18 -10 9 -11 8 -5 -6z"/>
<path d="M10667 4543 c-12 -12 -7 -22 8 -17 8 4 15 10 15 15 0 11 -14 12 -23
2z"/>
<path d="M10712 4531 c2 -7 7 -12 11 -12 12 1 9 15 -3 20 -7 2 -11 -2 -8 -8z"/>
<path d="M10637 4224 c-8 -8 1 -24 14 -24 5 0 9 7 9 15 0 15 -12 20 -23 9z"/>
<path d="M10742 4198 c-19 -19 -14 -28 13 -28 18 0 25 5 25 20 0 22 -20 26
-38 8z"/>
<path d="M1505 3674 l-30 -12 27 -7 c30 -8 58 -1 58 14 0 16 -24 18 -55 5z"/>
<path d="M1727 1693 c-10 -18 -13 -33 -8 -33 15 0 33 28 29 47 -3 14 -8 11
-21 -14z"/>
<path d="M1780 1619 c0 -5 5 -7 10 -4 6 3 10 8 10 11 0 2 -4 4 -10 4 -5 0 -10
-5 -10 -11z"/>
<path d="M1911 1568 c0 -13 4 -32 9 -43 7 -16 9 -13 9 17 1 20 -3 40 -9 43 -6
3 -10 -4 -9 -17z"/>
<path d="M10600 7024 c0 -8 5 -12 10 -9 6 3 10 10 10 16 0 5 -4 9 -10 9 -5 0
-10 -7 -10 -16z"/>
<path d="M10033 6973 c-10 -20 -9 -25 3 -30 22 -8 33 9 20 33 l-12 22 -11 -25z"/>
<path d="M9910 6935 c0 -19 24 -29 46 -21 13 5 14 9 4 21 -16 20 -50 19 -50 0z"/>
<path d="M10000 6920 c0 -5 5 -10 10 -10 6 0 10 5 10 10 0 6 -4 10 -10 10 -5
0 -10 -4 -10 -10z"/>
<path d="M9924 6788 c13 -64 66 -79 66 -19 0 33 -2 35 -44 45 -28 7 -29 6 -22
-26z"/>
<path d="M7340 6518 c-69 -47 -92 -149 -55 -240 18 -43 22 -46 50 -41 96 18
183 139 161 227 -18 71 -92 97 -156 54z"/>
<path d="M5331 6073 c-21 -54 -101 -308 -101 -324 0 -8 -6 -24 -14 -34 -13
-18 -15 -18 -77 3 -57 19 -65 20 -86 7 -15 -10 -23 -25 -23 -44 0 -25 6 -31
38 -41 66 -22 65 -25 -26 -95 -29 -21 -52 -43 -52 -47 0 -4 14 -15 30 -23 28
-14 38 -14 113 1 45 9 103 28 129 42 44 23 54 25 139 19 89 -7 90 -7 87 15 -2
13 -21 34 -45 51 -24 15 -46 39 -49 52 -3 14 5 55 20 98 29 85 33 152 12 239
-24 101 -70 141 -95 81z"/>
<path d="M6700 5978 c-33 -17 -70 -92 -70 -143 0 -23 10 -70 22 -105 30 -90
84 -142 174 -169 37 -11 68 -19 69 -18 0 1 6 18 14 37 57 153 28 312 -71 377
-44 30 -104 39 -138 21z"/>
<path d="M7543 5864 c-3 -8 -1 -25 5 -37 10 -22 10 -22 21 6 11 29 8 47 -10
47 -5 0 -12 -7 -16 -16z"/>
<path d="M7660 5711 c0 -10 9 -21 20 -24 16 -4 20 0 20 19 0 17 -6 24 -20 24
-13 0 -20 -7 -20 -19z"/>
<path d="M7750 5630 c0 -5 5 -10 11 -10 5 0 7 5 4 10 -3 6 -8 10 -11 10 -2 0
-4 -4 -4 -10z"/>
<path d="M7850 5464 c0 -8 5 -12 10 -9 6 4 8 11 5 16 -9 14 -15 11 -15 -7z"/>
<path d="M7744 5434 c3 -9 6 -18 6 -21 0 -3 7 0 15 7 21 18 19 30 -6 30 -15 0
-19 -4 -15 -16z"/>
<path d="M8635 5230 c-3 -5 -19 -10 -34 -10 -53 0 -71 -44 -18 -47 27 -2 34 3
49 32 16 32 18 49 3 25z"/>
<path d="M8803 5135 c-25 -11 -31 -25 -10 -25 18 0 40 16 36 26 -2 5 -14 5
-26 -1z"/>
<path d="M8720 5120 c0 -13 7 -20 20 -20 24 0 25 6 6 26 -20 19 -26 18 -26 -6z"/>
<path d="M4080 5110 c0 -5 4 -10 9 -10 6 0 13 5 16 10 3 6 -1 10 -9 10 -9 0
-16 -4 -16 -10z"/>
<path d="M9030 5090 c0 -5 5 -10 11 -10 5 0 7 5 4 10 -3 6 -8 10 -11 10 -2 0
-4 -4 -4 -10z"/>
<path d="M8662 5063 c2 -10 10 -18 18 -18 22 0 18 29 -3 33 -14 3 -18 -1 -15
-15z"/>
<path d="M9196 5031 c-4 -7 -5 -15 -2 -18 9 -9 19 4 14 18 -4 11 -6 11 -12 0z"/>
<path d="M9237 5004 c-9 -10 2 -24 19 -24 8 0 14 7 14 15 0 15 -21 21 -33 9z"/>
<path d="M9069 4929 c-8 -15 -8 -24 0 -32 8 -8 11 -7 11 5 0 9 7 19 16 22 8 3
12 10 9 16 -10 16 -23 12 -36 -11z"/>
<path d="M9231 4936 c-11 -13 -11 -16 0 -20 86 -24 89 -25 99 -6 8 15 5 19
-18 23 -15 3 -36 8 -48 12 -13 4 -25 1 -33 -9z"/>
<path d="M7816 4924 c-4 -10 0 -24 9 -33 13 -14 15 -13 15 4 0 11 -4 26 -9 33
-6 11 -10 10 -15 -4z"/>
<path d="M9400 4932 c0 -5 7 -13 16 -16 10 -4 14 -1 12 6 -5 15 -28 23 -28 10z"/>
<path d="M8140 4889 c0 -5 5 -7 10 -4 6 3 10 8 10 11 0 2 -4 4 -10 4 -5 0 -10
-5 -10 -11z"/>
<path d="M8578 4660 c-4 -14 -8 -39 -8 -57 0 -17 -4 -43 -10 -57 -6 -16 -6
-26 0 -26 15 0 32 71 28 120 -2 38 -4 41 -10 20z"/>
<path d="M12448 4396 l-27 -12 19 -29 c11 -17 20 -38 20 -47 0 -20 20 -35 29
-21 3 6 18 16 33 24 l27 14 -37 41 c-34 38 -39 40 -64 30z m52 -66 c0 -5 -4
-10 -10 -10 -5 0 -10 5 -10 10 0 6 5 10 10 10 6 0 10 -4 10 -10z"/>
<path d="M7369 4357 c-49 -33 -88 -104 -102 -181 -6 -36 -14 -66 -17 -66 -3 0
-16 29 -28 65 -28 77 -87 135 -156 155 -75 21 -132 -3 -167 -71 -48 -95 -32
-212 45 -316 51 -70 102 -104 165 -114 26 -3 54 -10 64 -14 12 -5 17 -3 17 8
0 8 11 37 25 64 14 27 29 72 34 101 4 29 10 55 13 57 3 3 13 -16 23 -42 28
-76 54 -111 101 -139 24 -14 44 -30 44 -34 0 -5 11 2 25 16 14 14 31 24 38 21
6 -2 18 -30 25 -63 7 -34 25 -74 41 -94 15 -19 30 -43 34 -54 5 -13 11 -15 20
-8 6 5 32 13 57 17 101 17 181 86 208 181 23 80 12 137 -36 187 -44 47 -77 59
-151 55 l-66 -3 -6 70 c-7 79 -19 115 -55 162 -50 65 -132 82 -195 40z"/>
<path d="M8330 4359 c0 -5 5 -7 10 -4 6 3 10 8 10 11 0 2 -4 4 -10 4 -5 0 -10
-5 -10 -11z"/>
<path d="M8390 4349 c0 -5 5 -7 10 -4 6 3 10 8 10 11 0 2 -4 4 -10 4 -5 0 -10
-5 -10 -11z"/>
<path d="M9655 4290 c-8 -13 25 -13 45 0 12 8 9 10 -12 10 -15 0 -30 -4 -33
-10z"/>
<path d="M4504 3945 c11 -8 22 -12 25 -9 6 6 -19 24 -34 24 -5 -1 -1 -7 9 -15z"/>
<path d="M3277 3814 c-8 -8 1 -24 14 -24 5 0 9 7 9 15 0 15 -12 20 -23 9z"/>
<path d="M10571 3736 c-9 -11 -7 -15 11 -20 44 -11 53 -8 33 14 -21 24 -29 25
-44 6z"/>
<path d="M4500 3725 c-11 -13 -7 -15 25 -15 41 0 42 1 9 18 -17 9 -25 8 -34
-3z"/>
<path d="M4795 3697 c-116 -43 -122 -43 -150 -17 -14 13 -28 20 -32 16 -10
-10 56 -66 76 -66 8 0 24 8 35 19 27 24 110 51 157 51 21 0 40 4 43 8 9 15
-79 7 -129 -11z"/>
<path d="M4978 3708 c17 -8 26 -8 34 0 9 9 4 12 -22 11 -33 0 -34 -1 -12 -11z"/>
<path d="M9725 2669 c-16 -11 -54 -31 -83 -44 l-53 -24 2 -48 c1 -29 -4 -61
-15 -81 -28 -53 2 -70 59 -32 17 11 38 20 48 20 37 0 79 32 98 73 21 46 25
108 9 138 -14 24 -28 24 -65 -2z"/>
<path d="M9867 2528 c-10 -5 -17 -21 -17 -37 0 -15 -9 -36 -20 -46 -11 -10
-20 -30 -20 -45 0 -15 9 -35 20 -45 11 -10 20 -26 20 -35 0 -9 10 -25 23 -36
20 -18 67 -23 155 -15 7 0 22 21 33 46 11 24 24 47 29 50 17 11 11 61 -10 80
-11 10 -20 25 -20 34 -1 40 -27 54 -103 56 -40 2 -81 -1 -90 -7z"/>
<path d="M4942 2503 c-5 -10 -13 -33 -17 -51 -3 -17 -22 -50 -41 -73 -38 -45
-49 -77 -39 -108 5 -17 15 -21 46 -21 22 0 53 7 69 15 40 21 46 3 13 -36 -32
-38 -27 -36 87 44 47 33 75 57 63 53 -13 -3 -32 -9 -43 -12 -21 -7 -24 1 -35
88 -11 84 -78 149 -103 101z"/>
<path d="M11053 2447 c-25 -27 -30 -39 -29 -79 2 -60 26 -88 76 -88 20 0 41
-5 47 -11 14 -14 55 24 72 68 10 25 10 39 1 68 -14 42 -40 60 -96 69 -36 5
-43 2 -71 -27z"/>
<path d="M6631 2384 c-24 -30 -29 -49 -33 -109 -3 -36 -6 -40 -30 -40 -33 1
-28 -9 23 -40 47 -30 49 -30 42 -5 -7 26 6 25 61 -2 37 -18 47 -19 60 -8 9 7
16 19 16 27 0 28 -88 195 -106 200 -7 2 -21 -8 -33 -23z"/>
<path d="M11362 2387 c-63 -35 -66 -104 -7 -156 31 -27 38 -29 66 -19 39 13
69 62 69 110 0 61 -70 97 -128 65z"/>
<path d="M1407 2373 c-3 -5 3 -20 14 -33 18 -24 19 -24 19 -4 0 23 -25 50 -33
37z"/>
<path d="M9229 2301 c-17 -18 -29 -40 -29 -56 0 -37 50 -85 89 -85 75 0 111
91 56 145 -34 35 -78 33 -116 -4z"/>
<path d="M5747 2241 c-25 -28 -38 -53 -42 -85 -4 -26 -12 -49 -17 -52 -5 -3
-30 3 -56 14 -61 26 -113 35 -132 22 -12 -8 -5 -20 43 -66 31 -31 57 -61 57
-68 0 -6 14 -26 30 -44 23 -25 37 -33 58 -30 28 3 30 9 21 66 -3 16 4 27 22
39 25 15 28 15 61 -10 43 -33 63 -34 83 -4 18 28 6 75 -30 118 -11 14 -27 51
-34 82 -7 32 -16 57 -21 57 -4 0 -24 -18 -43 -39z"/>
<path d="M10418 2259 c-38 -19 -56 -54 -44 -84 16 -42 79 5 90 68 8 42 5 43
-46 16z"/>
<path d="M10140 2266 c0 -2 8 -10 18 -17 15 -13 16 -12 3 4 -13 16 -21 21 -21
13z"/>
<path d="M2307 2229 c-9 -5 -24 -24 -33 -40 -22 -43 -4 -92 40 -113 47 -22 66
-20 98 11 37 35 39 99 5 131 -25 24 -79 29 -110 11z"/>
<path d="M11664 2165 c-10 -8 -29 -15 -41 -15 -17 0 -25 -9 -33 -41 -11 -38
-10 -79 0 -70 3 2 16 -1 29 -8 24 -13 26 -13 93 19 34 16 40 39 20 81 -24 51
-37 58 -68 34z"/>
<path d="M6409 2081 c-17 -18 -29 -40 -29 -56 0 -35 50 -85 85 -85 82 0 121
101 57 150 -36 29 -78 26 -113 -9z"/>
<path d="M6872 2067 c-18 -18 -32 -41 -32 -50 0 -9 -18 -28 -40 -42 -31 -20
-40 -31 -40 -53 0 -15 5 -33 12 -40 17 -17 64 -15 83 4 14 15 22 15 68 3 l52
-14 44 42 c41 40 43 46 38 84 -8 62 -48 99 -107 99 -39 0 -51 -5 -78 -33z"/>
<path d="M11260 2080 c0 -19 3 -21 12 -12 9 9 9 15 0 24 -9 9 -12 7 -12 -12z"/>
<path d="M10206 2056 c-20 -31 -20 -36 -1 -36 19 0 40 39 27 52 -6 6 -15 0
-26 -16z"/>
<path d="M5047 2063 c-23 -6 -61 -42 -72 -68 -17 -42 -1 -98 43 -153 26 -33
98 -40 124 -12 10 11 24 20 31 20 14 0 37 48 39 82 3 54 -4 76 -33 106 -26 26
-39 32 -73 31 -22 -1 -49 -3 -59 -6z"/>
<path d="M8230 2052 c-42 -34 -24 -139 30 -170 16 -9 30 -20 30 -25 0 -4 8 -3
18 2 9 5 29 14 44 21 51 24 69 104 35 151 -31 41 -118 53 -157 21z"/>
<path d="M10328 2043 c-10 -18 -13 -35 -7 -48 4 -11 8 -14 8 -8 1 7 19 24 41
38 44 28 45 45 2 45 -20 0 -32 -8 -44 -27z"/>
<path d="M11465 2040 c10 -11 20 -20 22 -20 2 0 -1 9 -7 20 -6 11 -16 20 -22
20 -6 0 -3 -9 7 -20z"/>
<path d="M2039 2001 c-41 -42 -41 -101 1 -142 28 -28 34 -30 94 -27 l64 3 8
45 c17 103 -15 150 -102 150 -26 0 -44 -8 -65 -29z"/>
<path d="M7158 2003 c-28 -33 -36 -75 -22 -110 17 -41 60 -71 77 -54 6 6 19
11 29 11 11 0 30 12 45 26 21 21 24 32 20 61 -9 54 -42 83 -92 83 -27 0 -47
-6 -57 -17z"/>
<path d="M11366 2006 c3 -9 11 -16 16 -16 13 0 5 23 -10 28 -7 2 -10 -2 -6
-12z"/>
<path d="M10791 1984 c0 -11 3 -14 6 -6 3 7 2 16 -1 19 -3 4 -6 -2 -5 -13z"/>
<path d="M8804 1966 c-9 -24 0 -58 19 -70 27 -17 52 4 52 45 0 31 -3 34 -33
37 -21 2 -34 -2 -38 -12z"/>
<path d="M10925 1969 c-4 -6 -5 -13 -2 -16 7 -7 27 6 27 18 0 12 -17 12 -25
-2z"/>
<path d="M11514 1954 c3 -9 6 -27 6 -40 0 -40 18 -27 22 16 3 34 1 40 -15 40
-13 0 -17 -5 -13 -16z"/>
<path d="M8561 1891 c-36 -50 -26 -89 32 -124 25 -16 29 -16 52 -1 53 35 62
99 19 133 -39 30 -78 27 -103 -8z"/>
<path d="M10672 1899 c2 -7 10 -15 17 -17 8 -3 12 1 9 9 -2 7 -10 15 -17 17
-8 3 -12 -1 -9 -9z"/>
<path d="M2475 1858 c-11 -6 -26 -18 -32 -26 -20 -25 -16 -86 8 -116 17 -21
29 -26 66 -26 37 0 50 5 74 31 39 42 39 82 -2 120 -33 31 -77 38 -114 17z"/>
<path d="M6162 1818 c-7 -7 -12 -19 -12 -28 0 -40 61 -55 80 -21 13 25 13 27
-6 45 -18 19 -45 21 -62 4z"/>
<path d="M5980 1741 c-12 -24 -4 -48 21 -62 38 -20 86 34 59 66 -18 22 -67 19
-80 -4z"/>
<path d="M2306 1702 c-9 -16 9 -145 22 -150 7 -2 12 5 12 16 0 11 5 22 11 24
7 2 3 24 -11 61 -22 58 -25 63 -34 49z"/>
<path d="M4300 1690 c0 -11 2 -20 4 -20 2 0 6 9 9 20 3 11 1 20 -4 20 -5 0 -9
-9 -9 -20z"/>
<path d="M6190 1670 c-8 -16 -6 -24 11 -41 21 -21 23 -21 36 -4 16 23 17 37 1
53 -18 18 -36 15 -48 -8z"/>
<path d="M5213 1647 c-13 -18 -23 -37 -23 -42 0 -11 59 56 60 68 1 17 -16 5
-37 -26z"/>
<path d="M3770 1650 c0 -5 5 -10 10 -10 6 0 10 5 10 10 0 6 -4 10 -10 10 -5 0
-10 -4 -10 -10z"/>
<path d="M3155 1540 c-3 -5 -1 -10 4 -10 6 0 11 5 11 10 0 6 -2 10 -4 10 -3 0
-8 -4 -11 -10z"/>
<path d="M2750 1490 c0 -5 5 -10 11 -10 5 0 7 5 4 10 -3 6 -8 10 -11 10 -2 0
-4 -4 -4 -10z"/>
</g>
</svg>